<?xml version="1.0" standalone="no"?>
<!DOCTYPE svg PUBLIC "-//W3C//DTD SVG 1.1//EN" "http://www.w3.org/Graphics/SVG/1.1/DTD/svg11.dtd" >
<svg xmlns="http://www.w3.org/2000/svg">
<metadata></metadata>
<defs>
<font id="itc_lubalin_graph_stdbook" horiz-adv-x="580" >
<font-face units-per-em="1000" ascent="719" descent="-281" />
<missing-glyph horiz-adv-x="300" />
<glyph unicode="fi" horiz-adv-x="500" d="M331 465h-162v-403h162v403zM397 611h-66v103h66v-103zM485 62v-62h-470v62h88v403h-88v64h88v9q1 22 2 42.5t6 39t15 35.5t28 33q26 24 58.5 33.5t67.5 11.5v-59q-20 -2 -38.5 -7.5t-34.5 -17.5q-27 -20 -31.5 -47.5t-5.5 -58.5v-14h227v-467h88z" />
<glyph unicode="fl" horiz-adv-x="500" d="M169 62h161v612h-25q-28 0 -51.5 -4t-46.5 -21q-14 -11 -21.5 -23.5t-11 -26.5t-4.5 -29.5t-1 -31.5v-9h90v-64h-90v-403zM396 62h88v-62h-469v62h88v403h-88v64h88v9q1 23 2.5 44t6.5 40t16 36.5t31 33.5q27 23 62.5 32t70.5 9h104v-671z" />
<glyph unicode="&#xd;" horiz-adv-x="300" />
<glyph unicode=" "  horiz-adv-x="300" />
<glyph unicode="&#x09;" horiz-adv-x="300" />
<glyph unicode="&#xa0;" horiz-adv-x="300" />
<glyph unicode="!" horiz-adv-x="140" d="M105 183h-69v531h69v-531zM105 0h-69v109h69v-109z" />
<glyph unicode="&#x22;" horiz-adv-x="280" d="M47 487l-11 227h70l-12 -227h-47zM179 487l-11 227h70l-11 -227h-48z" />
<glyph unicode="#" d="M243 423l-15 -117h121l15 117h-121zM352 0h-47l36 260h-122l-36 -260h-47l35 260h-142v46h151l15 117h-139v47h147l34 244h47l-33 -244h121l35 244h46l-33 -244h131v-47h-140l-14 -117h129v-46h-138z" />
<glyph unicode="$" d="M312 48q55 7 91.5 45.5t36.5 95.5q0 59 -37 94.5t-91 47.5v-283zM251 663q-23 -1 -43.5 -11.5t-35.5 -27.5t-24 -38.5t-9 -45.5q0 -54 32 -85t80 -42v250zM414 544q0 21 -8.5 40.5t-22.5 35.5t-32.5 27t-38.5 16v-263q42 -6 79 -22.5t64 -43t42.5 -63t15.5 -81.5 q0 -43 -16 -79t-43.5 -63t-64 -44t-77.5 -20v-93h-61v93q-40 13 -67.5 29.5t-50.5 51.5v-65h-57v192h57q2 -52 36 -89.5t82 -54.5v296l-32 10q-33 10 -59 23t-50 39q-22 25 -33 57t-11 65q0 39 15 72.5t40 58.5t58.5 40t71.5 18v98h61v-98q34 -8 60.5 -25t41.5 -47v58h57 v-169h-57z" />
<glyph unicode="%" horiz-adv-x="800" d="M217 0l317 714h57l-316 -714h-58zM202 456q22 0 42 8.5t34 23.5t22.5 34.5t8.5 42.5q0 21 -8.5 40.5t-23 34t-34 23t-40.5 8.5q-22 0 -41.5 -8t-34.5 -22t-24 -33t-9 -41q0 -23 8 -43t22.5 -35t34.5 -24t43 -9zM201 398q-35 0 -65.5 13.5t-52.5 36.5t-34.5 53.5 t-12.5 65.5q0 34 13.5 63.5t36 51.5t53 34.5t63.5 12.5q34 0 63.5 -13t52 -35.5t35.5 -52.5t13 -64q0 -35 -13 -65t-35 -52.5t-52.5 -35.5t-64.5 -13zM605 46q22 0 42 8.5t34 23t22.5 34t8.5 42.5q0 22 -8.5 41t-23 33.5t-33.5 23t-41 8.5t-41.5 -8t-34.5 -22t-23.5 -33 t-8.5 -41q0 -23 8 -43t22.5 -35t34 -23.5t42.5 -8.5zM605 -13q-35 0 -65.5 13.5t-53 36.5t-35 53.5t-12.5 65.5q0 34 13.5 63.5t36 51.5t53 34.5t63.5 12.5q34 0 64 -13t52.5 -35.5t35.5 -52.5t13 -64t-13 -64.5t-35 -53t-52.5 -35.5t-64.5 -13z" />
<glyph unicode="&#x26;" horiz-adv-x="720" d="M248 361q-26 -12 -51.5 -27t-45.5 -34.5t-32 -45t-12 -58.5q0 -30 11.5 -57t31 -47t46 -32t57.5 -12q36 0 62 12t45.5 32t34 46t28.5 55zM261 440q19 9 40 21t38.5 27.5t28.5 35t11 44.5q0 21 -8 40.5t-21.5 33.5t-32.5 22.5t-41 8.5q-21 0 -39.5 -7.5t-33 -21t-22.5 -32 t-8 -40.5q0 -20 5.5 -36t15.5 -29t22 -25t26 -25zM633 -11l-163 159q-18 -36 -38.5 -66t-47 -51t-60 -33t-76.5 -12t-81.5 16t-67.5 44t-46 66t-17 82q0 39 14 71t37.5 58t54 46.5t62.5 36.5l-14 13q-18 16 -33 32t-26 34t-17.5 38.5t-6.5 46.5q0 35 13.5 65t36 51.5t53 34 t65.5 12.5q33 0 63 -12.5t52.5 -34t36 -50.5t13.5 -63q0 -33 -11.5 -59t-31 -47t-44 -37.5t-51.5 -29.5l159 -152l94 203h129v-62h-87l-89 -188l171 -166z" />
<glyph unicode="'" horiz-adv-x="140" d="M47 487l-11 227h70l-12 -227h-47z" />
<glyph unicode="(" horiz-adv-x="340" d="M300 -133q-61 28 -109.5 73t-83 101t-53 120t-18.5 131q0 73 21.5 141t63.5 128q16 23 36 46t43 43.5t48 37t52 26.5v-79q-89 -56 -139.5 -146.5t-50.5 -195.5q0 -52 13 -102.5t37.5 -95.5t59.5 -82.5t80 -64.5v-81z" />
<glyph unicode=")" horiz-adv-x="340" d="M36 714q54 -21 100.5 -63.5t78.5 -89.5q42 -60 63.5 -128t21.5 -141q0 -67 -18.5 -131t-53 -120t-83 -101t-109.5 -73v81q45 27 80 64.5t59.5 82.5t37.5 95.5t13 102.5q0 105 -50.5 195.5t-139.5 146.5v79z" />
<glyph unicode="*" horiz-adv-x="340" d="M310 563h-102l52 -83l-36 -22l-51 87l-48 -90l-36 20l50 88l-103 -2v42h101l-55 86l36 23l54 -91l52 93l37 -21l-53 -90l102 2v-42z" />
<glyph unicode="+" horiz-adv-x="660" d="M294 388v223h62v-223h223v-61h-223v-223h-62v223h-223v61h223z" />
<glyph unicode="," horiz-adv-x="300" d="M81 -97l74 184h63l-74 -184h-63z" />
<glyph unicode="-" horiz-adv-x="300" d="M26 228v66h248v-66h-248z" />
<glyph unicode="." horiz-adv-x="300" d="M185 0h-69v109h69v-109z" />
<glyph unicode="/" d="M36 -195l445 909h54l-446 -909h-53z" />
<glyph unicode="0" d="M109 248q0 -36 6.5 -67t29.5 -60q25 -34 62.5 -52t79.5 -18q43 0 82 19t64 54q20 29 26 59t6 65v222q0 36 -6 67t-29 60q-25 34 -63 52t-80 18t-81 -19.5t-64 -54.5q-20 -29 -26.5 -58.5t-6.5 -64.5v-222zM536 248q0 -53 -13.5 -96.5t-49.5 -83.5q-36 -38 -84 -60 t-102 -22q-50 0 -95.5 19t-80.5 54q-42 41 -57.5 86.5t-15.5 102.5v223q0 53 13.5 96.5t50.5 82.5q36 39 84 61t101 22q50 0 95.5 -19t80.5 -54q42 -41 57.5 -86.5t15.5 -102.5v-223z" />
<glyph unicode="1" d="M344 62h94v-62h-258v62h94v595h-138v57h208v-652z" />
<glyph unicode="2" d="M514 173v-173h-455v62l302 294q16 16 31.5 32.5t27.5 35t19.5 39t7.5 45.5q0 33 -12 61.5t-33.5 49.5t-50 33t-61.5 12q-35 0 -65 -13.5t-51 -36.5t-32 -54t-9 -66h-69q-2 50 15 93.5t48.5 76t74.5 51t93 18.5q42 0 84 -16.5t72 -45.5q33 -33 49.5 -75.5t16.5 -89.5 q0 -34 -9.5 -61.5t-25 -51.5t-36.5 -45.5t-43 -43.5l-252 -242h299v111h64z" />
<glyph unicode="3" d="M104 560q1 38 16.5 69.5t41.5 54.5t59.5 36t69.5 13q37 0 70.5 -13t59 -36t40.5 -55t15 -71q0 -50 -24 -91.5t-72 -60.5q31 -10 57 -29.5t44.5 -45.5t28.5 -57t10 -64q0 -47 -18.5 -88t-50 -71t-73 -47.5t-87.5 -17.5q-48 0 -90 16t-74 44.5t-51.5 68.5t-22.5 89h73 q2 -31 15 -59t34 -49t49 -33.5t60 -12.5q35 0 64.5 13t51.5 35.5t34 53t12 64.5q0 35 -14 64t-38 50t-55 33t-64 12h-36v56h34q26 0 49 5t44 22t32 41t11 51q0 54 -34 88.5t-87 34.5q-23 0 -44 -9t-36.5 -24t-25.5 -35.5t-11 -44.5h-67z" />
<glyph unicode="4" d="M375 629l-272 -396h272v396zM549 175h-104v-113h94v-62h-257v62h93v113h-351v58l335 481h86v-481h104v-58z" />
<glyph unicode="5" d="M107 194q6 -32 22.5 -58t40 -45t52.5 -29.5t61 -10.5q37 0 70.5 13.5t59 37.5t40.5 56.5t15 70.5q0 39 -14 72t-38.5 58t-58 39t-72.5 14q-45 0 -84 -19.5t-65 -55.5l-63 15l66 362h353v-62h-296l-45 -230q64 53 149 53q50 0 93.5 -19t76 -52t51.5 -77t19 -93 q0 -54 -20.5 -99.5t-55 -78.5t-81.5 -51.5t-99 -18.5q-48 0 -90 15t-75 42t-55.5 65.5t-30.5 85.5h74z" />
<glyph unicode="6" d="M287 55q37 0 70.5 14t58.5 38.5t39.5 57.5t14.5 71t-14 71.5t-39 59t-58 40.5t-72 15q-38 0 -71.5 -14.5t-58 -39.5t-39 -58.5t-14.5 -70.5q0 -38 14 -71.5t39 -58.5t58.5 -39.5t71.5 -14.5zM382 714l-183 -267q26 17 49 25.5t55 8.5q49 0 92 -19t75 -52t50 -76.5 t18 -91.5q0 -53 -19 -99.5t-52 -81.5t-78.5 -55t-99.5 -20t-100.5 20.5t-80.5 55.5t-53.5 82t-19.5 100q0 47 16 85.5t42 76.5l210 308h79z" />
<glyph unicode="7" d="M504 714v-67l-293 -647h-78l299 652h-293v-129h-69v191h434z" />
<glyph unicode="8" d="M286 49q33 0 61 12.5t49 34t33 50t12 60.5t-12.5 60.5t-34 49.5t-50 33.5t-60.5 12.5t-60 -12.5t-49 -33.5t-33.5 -49.5t-12.5 -60.5q0 -33 12.5 -61.5t33.5 -50t49.5 -33.5t61.5 -12zM284 424q25 0 47.5 10t39.5 26.5t26.5 39t9.5 47.5t-9.5 48t-26 39.5t-39 26.5 t-47.5 10q-26 0 -48 -9.5t-39 -26.5t-26.5 -39.5t-9.5 -47.5q0 -26 9.5 -48.5t26 -39t38.5 -26.5t48 -10zM198 396q-47 20 -74 60t-27 93q0 40 15.5 74t42 58.5t61.5 38t75 13.5q36 0 69 -14t58 -38t39.5 -56t14.5 -69q0 -53 -25 -93t-72 -63q30 -10 56 -29t44.5 -44.5 t29 -56t10.5 -62.5q0 -47 -18 -87.5t-49.5 -70.5t-73 -47t-87.5 -17q-47 0 -88 16t-72.5 44.5t-49.5 68.5t-18 87q0 33 10 63.5t28.5 56t44 44.5t56.5 30z" />
<glyph unicode="9" d="M289 293q39 0 72.5 15t57.5 40.5t38 60t14 72.5q0 37 -14.5 70t-39 58t-57.5 39.5t-70 14.5q-38 0 -71.5 -14t-59 -38.5t-40.5 -58t-15 -71.5q0 -39 14 -73.5t39 -60t59 -40t73 -14.5zM190 0l184 264q-24 -15 -48 -24t-53 -9q-50 0 -94 20t-76 53.5t-50.5 78t-18.5 93.5 q0 52 20 99t55 82t81 55.5t99 20.5t99 -20.5t80 -56t53.5 -82t19.5 -98.5q0 -51 -15 -89t-43 -79l-206 -308h-87z" />
<glyph unicode=":" horiz-adv-x="300" d="M185 366h-69v109h69v-109zM185 0h-69v109h69v-109z" />
<glyph unicode=";" horiz-adv-x="300" d="M182 366h-64v109h64v-109zM46 -97l74 184h63l-74 -184h-63z" />
<glyph unicode="&#x3c;" horiz-adv-x="660" d="M595 83l-540 246v58l540 248v-63l-470 -215l470 -211v-63z" />
<glyph unicode="=" horiz-adv-x="660" d="M579 314v-61h-508v61h508zM579 463v-61h-508v61h508z" />
<glyph unicode="&#x3e;" horiz-adv-x="660" d="M525 357l-470 215v63l540 -248v-58l-540 -246v63z" />
<glyph unicode="?" horiz-adv-x="520" d="M229 180q0 68 27 113.5t76 89.5q16 15 30.5 29t25 29t16.5 33.5t6 42.5q0 31 -12 59t-33 48.5t-49 32.5t-59 12q-32 0 -59.5 -12.5t-48 -34t-32 -49.5t-11.5 -59h-70q0 46 17 86.5t47 71.5t70.5 49t87.5 18q46 0 86.5 -17t71 -47t48.5 -70t18 -86q0 -32 -7 -56t-20 -43.5 t-31 -37.5t-39 -38q-38 -36 -61 -73.5t-25 -90.5h-70zM299 0h-70v109h70v-109z" />
<glyph unicode="@" horiz-adv-x="900" d="M408 199q50 0 90 34q20 17 29.5 35.5t18.5 42.5q4 11 9 28t10 35.5t8.5 35.5t3.5 29q0 41 -28.5 64.5t-69.5 23.5q-40 0 -74 -19t-58.5 -49t-38 -67t-13.5 -73q0 -24 7.5 -46t22 -38.5t35.5 -26t48 -9.5zM781 121q-56 -69 -135.5 -102t-169.5 -33q-74 0 -150.5 25.5 t-132.5 73.5q-59 51 -90 123t-31 149q0 79 32.5 147.5t87.5 119.5t128 80t153 29q69 0 132 -22t110.5 -62.5t76 -97t28.5 -125.5q0 -49 -12 -92.5t-42 -82.5q-29 -37 -73 -64t-94 -27q-30 0 -45 15.5t-17 44.5q-28 -32 -61.5 -48.5t-78.5 -16.5q-35 0 -63 14.5t-47.5 37.5 t-30 53t-10.5 62q0 45 18.5 89.5t50 79.5t74 56.5t91.5 21.5q41 0 74 -20.5t45 -58.5l16 49h47l-75 -256q-4 -12 -7.5 -25t-3.5 -26q0 -34 37 -34q15 0 31 5.5t30.5 14.5t27.5 20t22 22q32 35 44.5 76.5t12.5 87.5q0 58 -21.5 104.5t-65.5 86.5q-48 42 -104 61t-120 19 q-72 0 -133.5 -24t-113.5 -71q-108 -99 -108 -243q0 -75 28 -136.5t77 -105t115 -67.5t141 -24q40 0 80.5 8.5t77.5 24.5t69.5 39.5t58.5 53.5z" />
<glyph unicode="A" horiz-adv-x="820" d="M412 633l-146 -344h289zM554 0v66h93l-71 164h-331l-73 -164h90v-66h-255v66h89l259 582h-95v66h187l280 -648h89v-66h-262z" />
<glyph unicode="B" d="M310 66q35 0 68 3t61 21q27 17 38 49t11 63q0 34 -14.5 64.5t-42.5 50.5q-29 20 -61.5 23.5t-67.5 3.5h-115v-278h123zM297 406q33 0 60.5 3t54.5 26q22 18 32 42t10 53t-11.5 55t-35.5 43t-51 18.5t-56 1.5h-113v-242h110zM318 714q37 0 72 -6t66 -29q70 -53 70 -141 q0 -51 -27 -92.5t-72 -63.5q63 -23 98 -73t35 -116q0 -41 -16 -79t-46 -66q-35 -32 -75 -40t-87 -8h-312v66h91v582h-91v66h294z" />
<glyph unicode="C" horiz-adv-x="740" d="M642 540q-20 30 -47.5 52.5t-60 38t-67.5 23t-71 7.5q-63 0 -117.5 -23t-95.5 -63.5t-64.5 -94.5t-23.5 -117q0 -62 23 -117.5t63 -97t94.5 -66t118.5 -24.5q75 0 140.5 33.5t109.5 95.5h80q-23 -47 -57.5 -84t-77.5 -63t-92.5 -40t-100.5 -14q-74 0 -143 29t-121 80 q-55 54 -82 123t-27 145q0 77 29.5 144.5t82.5 122.5q48 49 115.5 76t144.5 27q72 0 136 -25.5t111 -77.5v84h66v-174h-66z" />
<glyph unicode="D" horiz-adv-x="720" d="M327 66q65 0 118.5 15t99.5 64q39 42 61.5 98t22.5 113q0 60 -22.5 119t-67.5 101q-24 22 -47.5 36.5t-49 22t-53 10.5t-59.5 3h-143v-582h140zM115 648h-92v66h318q76 0 137 -21t117 -76q53 -52 79.5 -120t26.5 -142q0 -71 -26.5 -136.5t-75.5 -117.5 q-55 -58 -117.5 -79.5t-140.5 -21.5h-318v66h92v582z" />
<glyph unicode="E" horiz-adv-x="560" d="M527 184v-184h-503v66h91v582h-91v66h503v-184h-72v118h-268v-258h276v-59h-276v-265h268v118h72z" />
<glyph unicode="F" horiz-adv-x="560" d="M187 66h92v-66h-255v66h91v582h-91v66h504v-186h-72v120h-269v-260h272v-59h-272v-263z" />
<glyph unicode="G" horiz-adv-x="780" d="M656 535q-52 63 -117 94q-65 33 -141 33q-63 0 -118 -23.5t-96.5 -64t-65 -95t-23.5 -117.5t23 -118t63.5 -96.5t95.5 -65.5t119 -24q51 0 97 15.5t84 43.5t65.5 67.5t40.5 88.5h-358v62h437v-335h-66v166q-45 -86 -125.5 -133t-177.5 -47q-46 0 -92.5 13t-88 37 t-76.5 57t-58 73q-7 12 -16.5 32t-18 45.5t-14.5 56t-6 62.5q0 79 29 146t77 113q56 53 124 82.5t147 29.5q74 0 141 -29.5t115 -82.5v93h66v-179h-66z" />
<glyph unicode="H" horiz-adv-x="720" d="M542 648h-91v66h254v-66h-91v-582h91v-66h-254v66h91v267h-355v-267h92v-66h-255v66h91v582h-91v66h255v-66h-92v-259h355v259z" />
<glyph unicode="I" horiz-adv-x="300" d="M187 66h91v-66h-254v66h91v582h-91v66h254v-66h-91v-582z" />
<glyph unicode="J" horiz-adv-x="520" d="M95 164q3 -23 12.5 -43t24.5 -35t35 -24t44 -9q29 0 52.5 12.5t40.5 34.5q21 26 24 56t3 62v430h-92v66h255v-66h-91v-445q0 -43 -6 -76.5t-34 -69.5q-27 -35 -68 -53t-86 -18q-39 0 -73 13.5t-59.5 37t-40.5 56t-16 71.5h75z" />
<glyph unicode="K" horiz-adv-x="700" d="M676 0h-262v66h83l-310 294v-294h91v-66h-254v66h91v582h-91v66h254v-66h-91v-265l294 265h-80v66h258v-66h-86l-307 -275l326 -307h84v-66z" />
<glyph unicode="L" horiz-adv-x="520" d="M493 184v-184h-469v66h91v582h-91v66h254v-66h-91v-582h234v118h72z" />
<glyph unicode="M" horiz-adv-x="980" d="M182 66h94v-66h-257v66h91v582h-91v66h200l259 -606l284 606h198v-66h-92v-582h92v-66h-256v66h92v556l-292 -622h-56l-266 620v-554z" />
<glyph unicode="N" horiz-adv-x="800" d="M688 0h-74l-427 597v-531h92v-66h-255v66h91v582h-91v66h164l428 -600v534h-91v66h254v-66h-91v-648z" />
<glyph unicode="O" horiz-adv-x="800" d="M399 57q63 0 118 24t96.5 65.5t65 96.5t23.5 118q0 61 -23.5 116t-64.5 95.5t-96 64.5t-118 24t-118.5 -23.5t-97 -64t-65.5 -95.5t-24 -117q0 -63 23.5 -118t65 -96.5t97 -65t118.5 -23.5v-1zM400 -14q-78 0 -146.5 29t-120 79.5t-81 118.5t-29.5 146t29.5 146t80.5 119 t120 80t147 29q77 0 145 -29t119 -79.5t80.5 -117.5t29.5 -143q0 -78 -29 -147t-79.5 -120t-119 -81t-146.5 -30z" />
<glyph unicode="P" d="M316 348q34 0 64 5t57 28q55 46 55 117q0 34 -15.5 64.5t-41.5 51.5q-29 22 -57 28t-63 6h-128v-300h129zM187 66h91v-66h-254v66h91v582h-91v66h292q45 0 87 -9.5t79 -36.5q39 -29 60.5 -74t21.5 -94q0 -95 -69 -161q-38 -37 -79.5 -47t-92.5 -10h-136v-216z" />
<glyph unicode="Q" horiz-adv-x="860" d="M540 120q-32 28 -62 52t-68 41q-34 17 -71 26t-75 9q-71 0 -135 -26q18 -38 46.5 -68t64 -51.5t75.5 -33t82 -11.5q45 0 85 10t78 35zM607 143q46 42 70.5 97t24.5 116q0 64 -23.5 119.5t-64.5 96.5t-96.5 65t-119.5 24q-62 0 -117 -23.5t-96 -64t-64.5 -95t-23.5 -115.5 q0 -20 4.5 -41t10.5 -41q37 12 76 19t78 7q53 0 99 -12.5t87 -35t79 -52.5t76 -64zM847 126v-146q-62 -1 -120.5 18.5t-109.5 54.5q-101 -67 -219 -67q-79 0 -147 29.5t-118.5 80.5t-79 119t-28.5 146q0 77 29 144.5t79 118t118 80t145 29.5q78 0 147 -29t120.5 -79.5 t81 -118.5t29.5 -146q0 -73 -28 -143t-83 -121q29 -19 60.5 -32.5t66.5 -17.5v80h57z" />
<glyph unicode="R" horiz-adv-x="640" d="M624 0h-139l-221 308h27q41 0 79.5 2.5t73.5 24.5q38 23 59 61t21 82q0 38 -13.5 71t-40.5 58q-32 29 -66.5 35t-75.5 6h-140v-582h85v-66h-249v66h92v582h-92v66h309q52 0 96 -9t86 -44q41 -35 61 -81t20 -99q0 -45 -16.5 -85t-45.5 -70t-68.5 -47.5t-85.5 -17.5 l149 -195h95v-66z" />
<glyph unicode="S" horiz-adv-x="500" d="M374 543q-7 61 -46.5 94t-95.5 33q-27 0 -52 -9t-43.5 -25.5t-30 -39.5t-11.5 -51q0 -29 12 -55.5t35 -43.5q24 -18 57 -26.5t62 -15.5q39 -9 75 -21t68 -39q33 -27 50 -65t17 -80q0 -37 -8.5 -68t-32.5 -61q-66 -84 -178 -84q-50 0 -92 21t-70 63v-70h-60v192h60 q7 -64 49.5 -102.5t109.5 -38.5q30 0 57.5 10.5t48 29t32.5 44.5t12 57q0 39 -14 64t-37 41.5t-53 26t-62 17.5q-37 10 -70.5 20t-65.5 33q-37 27 -55.5 65.5t-18.5 83.5q0 38 11 65.5t26 47.5q29 39 75.5 58t97.5 19q42 0 82.5 -19t58.5 -58v58h60v-171h-60z" />
<glyph unicode="T" horiz-adv-x="540" d="M311 66h91v-66h-254v66h91v582h-155v-125h-62v191h506v-191h-62v125h-155v-582z" />
<glyph unicode="U" horiz-adv-x="700" d="M582 237q0 -50 -11 -93t-46 -83q-33 -37 -78.5 -56t-96.5 -19t-95.5 17.5t-79.5 55.5q-38 42 -48.5 87.5t-10.5 99.5v402h-91v66h249v-66h-86v-394q0 -36 4.5 -69t25.5 -64q23 -32 57 -47.5t74 -15.5q37 0 69 13t55 42q25 32 31 67t6 73v395h-86v66h249v-66h-91v-411z " />
<glyph unicode="V" horiz-adv-x="780" d="M429 0h-76l-256 648h-90v66h255v-66h-89l220 -548l224 548h-91v66h251v-66h-86z" />
<glyph unicode="W" horiz-adv-x="1040" d="M753 0h-77l-158 573l-161 -573h-75l-188 648h-87v66h255v-66h-93l153 -538l167 604h57l167 -603l150 537h-96v66h256v-66h-90z" />
<glyph unicode="X" horiz-adv-x="740" d="M634 66h83v-66h-256v66h91l-180 248l-180 -248h87v-66h-257v66h89l218 301l-205 281h-86v66h256v-66h-87l165 -229l163 229h-91v66h257v-66h-83l-204 -281z" />
<glyph unicode="Y" horiz-adv-x="680" d="M381 66h91v-66h-255v66h92v174l-217 408h-85v66h249v-66h-88l177 -340l168 340h-92v66h250v-66h-85l-205 -408v-174z" />
<glyph unicode="Z" horiz-adv-x="520" d="M506 0h-483v59l371 589h-297v-119h-62v185h447v-57l-372 -591h334v119h62v-185z" />
<glyph unicode="[" horiz-adv-x="300" d="M260 -129h-225v843h225v-64h-151v-712h151v-67z" />
<glyph unicode="\" d="M81 714h69l298 -714h-67z" />
<glyph unicode="]" horiz-adv-x="300" d="M186 -62v712h-150v64h224v-843h-224v67h150z" />
<glyph unicode="^" horiz-adv-x="660" d="M50 174l246 540h56l248 -540h-62l-215 468l-212 -468h-61z" />
<glyph unicode="_" horiz-adv-x="500" d="M500 -75v-50h-500v50h500z" />
<glyph unicode="`" horiz-adv-x="420" d="M318 595l-247 134l28 58l244 -142z" />
<glyph unicode="a" horiz-adv-x="660" d="M292 469q-44 0 -82.5 -16.5t-67 -45t-45.5 -67t-17 -81.5q0 -42 16.5 -80t45 -66.5t66.5 -45.5t81 -17q45 0 83.5 16.5t67 45t45 67t16.5 82.5q0 43 -16.5 81t-45 66t-66.5 44.5t-81 16.5zM500 109q-35 -60 -90 -91.5t-124 -31.5q-72 0 -133.5 33t-96.5 90 q-20 32 -32 69.5t-10 81.5q0 28 4 50t10 39t14 31.5t16 29.5q16 28 40 51t54 39.5t63.5 25t69.5 8.5q72 0 125.5 -32t89.5 -92v115h153v-62h-87v-401h87v-62h-153v109z" />
<glyph unicode="b" horiz-adv-x="660" d="M379 52q43 0 81 16.5t66 45t44 67t16 81.5t-16.5 80.5t-44.5 65.5t-66 44t-81 16q-45 0 -83.5 -16t-67 -44t-45 -66t-16.5 -83q0 -44 17 -82t46 -66t67.5 -43.5t82.5 -15.5zM169 408q32 59 86.5 92.5t121.5 33.5q57 0 107.5 -21.5t87.5 -58.5t58.5 -87.5t21.5 -107.5 q0 -43 -13 -82t-31 -68q-14 -23 -37 -45t-52 -39.5t-63.5 -28t-70.5 -10.5q-68 0 -125 31.5t-91 91.5v-109h-154v62h88v590h-88v62h154v-306z" />
<glyph unicode="c" horiz-adv-x="560" d="M529 367h-62q-29 47 -77 74t-103 27q-44 0 -81.5 -16.5t-65.5 -45t-44 -67t-16 -81.5q0 -44 16.5 -81.5t45 -65.5t67.5 -43.5t83 -15.5q28 0 55.5 7.5t51 22t42.5 35.5t31 47h74q-15 -41 -41 -74t-60.5 -56t-75 -35.5t-83.5 -12.5q-56 0 -105.5 21.5t-86.5 58.5 t-58.5 86.5t-21.5 104.5q0 57 20.5 106.5t56.5 86.5q38 38 86.5 61t105.5 23q56 0 102 -21.5t82 -62.5v75h62v-158z" />
<glyph unicode="d" horiz-adv-x="660" d="M292 48q44 0 82.5 17t67 46t44.5 68t16 83q0 43 -16.5 81.5t-45 66.5t-67 44.5t-81.5 16.5q-44 0 -83 -17t-67.5 -46t-45 -67.5t-16.5 -82.5t17 -82t46 -66.5t67.5 -45t81.5 -16.5zM500 111q-34 -59 -90 -92t-125 -33q-31 0 -63.5 9.5t-62.5 26t-56 39.5t-43 50 q-20 32 -33 72t-13 79q0 55 21.5 104t58 86.5t85 59.5t103.5 22q69 0 127.5 -34t90.5 -96v248h-88v62h154v-652h88v-62h-154v111z" />
<glyph unicode="e" d="M497 292q-6 40 -25 73.5t-48 57.5t-65.5 37.5t-76.5 13.5q-38 0 -72.5 -14.5t-62 -39.5t-46 -58t-22.5 -70h418zM537 147q-17 -37 -42.5 -66.5t-58.5 -50.5t-71 -32.5t-78 -11.5q-57 0 -106.5 21t-87 58t-59 86.5t-21.5 105.5t21 106t57 88t85.5 60.5t106.5 22.5 q58 0 108.5 -21.5t88 -58.5t58.5 -87.5t21 -108.5v-20h-480q2 -41 19.5 -76t45.5 -61t64 -41t77 -15q57 0 105 26t77 76h70z" />
<glyph unicode="f" horiz-adv-x="300" d="M170 62h90v-62h-245v62h89v403h-89v64h88v8q1 22 2 42.5t6 39t15 36t28 33.5q26 24 58.5 33.5t67.5 11.5v-59q-20 -2 -38.5 -7.5t-34.5 -18.5q-27 -20 -31.5 -47.5t-5.5 -58.5v-13h90v-64h-90v-403z" />
<glyph unicode="g" horiz-adv-x="660" d="M292 48q44 0 82 17t66.5 46t45 67.5t16.5 82.5q0 43 -16.5 82t-45 67.5t-67 45.5t-82.5 17t-82.5 -17t-67.5 -46t-45.5 -68t-16.5 -83t17 -82t46 -67t67.5 -45.5t82.5 -16.5zM125 -57q24 -49 71.5 -76t101.5 -27q41 0 79.5 17.5t65.5 46.5q34 35 44 71.5t10 83.5v56 q-31 -61 -87.5 -95t-126.5 -34q-28 0 -61.5 8.5t-65.5 24.5t-60 40t-44 56q-14 26 -26.5 63.5t-12.5 82.5q0 48 13.5 87t31.5 65q40 57 100 89t129 32q68 0 124.5 -32.5t85.5 -88.5v112h154v-62h-88v-391q0 -30 -2.5 -56.5t-9 -51.5t-19.5 -48t-34 -46q-40 -44 -93 -65.5 t-111 -21.5q-39 0 -77 10.5t-71 30.5t-58.5 50t-38.5 69h76z" />
<glyph unicode="h" horiz-adv-x="640" d="M169 427q26 50 71.5 78.5t102.5 28.5q94 0 157 -74q34 -41 41.5 -85.5t7.5 -94.5v-218h88v-62h-242v62h88v191q0 37 -2 73.5t-21 68.5q-20 35 -55.5 55t-75.5 20q-35 0 -65.5 -13t-53.5 -39q-15 -17 -23.5 -34t-12 -35t-4.5 -37.5t-1 -40.5v-209h88v-62h-242v62h88v590 h-88v62h154v-287z" />
<glyph unicode="i" horiz-adv-x="260" d="M171 611h-66v103h66v-103zM171 62h88v-62h-244v62h90v401h-88v62h154v-463z" />
<glyph unicode="j" horiz-adv-x="240" d="M174 611h-66v103h66v-103zM174 10q0 -45 -7 -80t-25 -61t-49 -43t-79 -26v63q37 7 56.5 24t28 41t9 52.5t0.5 58.5v424h-88v62h154v-515z" />
<glyph unicode="k" d="M171 291l193 172h-79v62h247v-62h-86l-197 -179l221 -222h95v-62h-258v62h74l-210 212v-212h80v-62h-236v62h90v590h-90v62h156v-423z" />
<glyph unicode="l" horiz-adv-x="280" d="M175 62h87v-62h-247v62h94v590h-88v62h154v-652z" />
<glyph unicode="m" horiz-adv-x="980" d="M170 434q23 47 64 73.5t96 26.5q56 0 98 -26t68 -74l11 -20q11 27 29.5 49.5t42 38t51 24t55.5 8.5q76 0 119.5 -31.5t66.5 -88.5q10 -23 12.5 -48.5t2.5 -68.5v-235h88v-62h-242v62h88v220q0 18 -1.5 38t-5 38.5t-10 34.5t-15.5 27q-23 26 -52 38t-60 12 q-29 0 -59.5 -12.5t-51.5 -36.5q-26 -29 -31.5 -57.5t-5.5 -65.5v-236h88v-62h-242v62h88v222q0 47 -10.5 83t-21.5 53q-20 30 -51 40t-61 10q-38 0 -64 -12.5t-46 -36.5q-25 -29 -31.5 -61t-6.5 -69v-229h88v-62h-242v62h88v401h-88v62h154v-91z" />
<glyph unicode="n" horiz-adv-x="660" d="M169 433q25 49 73.5 75t102.5 26q22 0 48.5 -6t51.5 -18.5t46.5 -31.5t34.5 -45q10 -20 19.5 -54.5t9.5 -82.5v-234h88v-62h-242v62h88v210q0 35 -3.5 68.5t-21.5 64.5q-11 18 -26.5 30.5t-34 20t-38 10.5t-38.5 3q-35 0 -67.5 -14.5t-55.5 -40.5q-26 -30 -30.5 -63.5 t-4.5 -70.5v-218h88v-62h-242v62h88v401h-88v62h154v-92z" />
<glyph unicode="o" d="M288 51q43 0 81.5 16.5t66.5 45t44.5 66.5t16.5 81t-16 81t-44.5 66.5t-66.5 45t-81 16.5q-44 0 -82 -16.5t-66.5 -44.5t-45 -66t-16.5 -81t16 -81t44.5 -66.5t66.5 -45.5t82 -17zM288 -14q-57 0 -107 21.5t-87.5 58.5t-59 87t-21.5 106q0 57 22 107.5t59.5 87.5t88 58.5 t107.5 21.5q56 0 105.5 -21.5t87 -58t59 -86t21.5 -104.5q0 -57 -21.5 -108t-58.5 -88.5t-87 -59.5t-108 -22z" />
<glyph unicode="p" horiz-adv-x="660" d="M378 48q43 0 81.5 17t67 45.5t45.5 67t17 82.5q0 49 -17 89t-45.5 68t-66 42.5t-78.5 12.5q-43 -2 -81.5 -17t-68 -42t-47 -65.5t-17.5 -86.5q0 -44 16.5 -82.5t45 -67.5t66.5 -46t82 -17zM169 408q35 62 90.5 94t126.5 32q31 0 63.5 -7.5t62.5 -22.5t55.5 -39t44.5 -57 q15 -26 29 -62t14 -86q0 -57 -21 -106.5t-57.5 -87t-85.5 -59t-105 -21.5q-67 0 -126 32.5t-91 92.5v-244h88v-62h-242v62h88v596h-88v62h154v-117z" />
<glyph unicode="q" horiz-adv-x="660" d="M291 48q44 0 82 16.5t66.5 45.5t45.5 67.5t17 82.5q0 40 -16.5 78t-45.5 68t-68 48t-84 18q-45 3 -83 -11.5t-65.5 -43t-43.5 -68.5t-16 -89q0 -44 17 -82.5t45.5 -67.5t67 -45.5t81.5 -16.5zM499 110q-15 -29 -38.5 -52t-52 -39t-60.5 -24.5t-65 -8.5q-57 0 -106 21.5 t-85 58.5t-57 86.5t-21 106.5q0 35 8.5 73t29.5 75q14 25 37 48t52.5 40.5t65.5 28t76 10.5q70 0 126 -32.5t90 -94.5v118h154v-62h-88v-596h88v-62h-242v62h88v243z" />
<glyph unicode="r" horiz-adv-x="360" d="M169 418q9 27 26 47t39 33t48.5 19.5t54.5 7.5v-62q-88 -8 -128 -56.5t-40 -133.5v-211h88v-62h-242v62h88v401h-88v62h154v-107z" />
<glyph unicode="s" horiz-adv-x="420" d="M314 392q-1 20 -10 36.5t-24 27.5q-32 24 -74 24q-20 0 -38.5 -6t-33 -17t-23 -28t-8.5 -38q0 -25 10.5 -41t27.5 -26t37.5 -16t40.5 -10q31 -6 61.5 -14t57.5 -25q32 -18 48.5 -48.5t16.5 -66.5q0 -26 -7 -45t-16 -36q-19 -36 -63 -56.5t-90 -20.5q-48 0 -85 18t-61 59 v-63h-54v150h54q5 -48 42.5 -79.5t91.5 -31.5q22 0 42.5 7t36.5 20t25.5 31.5t9.5 41.5q0 27 -10.5 44t-27.5 27t-38.5 15.5t-43.5 10.5q-31 7 -61 14.5t-57 24.5q-29 19 -45.5 47.5t-16.5 63.5q0 27 6 48.5t21 41.5q12 15 28 26t34.5 18t38.5 10.5t38 3.5q37 0 68 -13.5 t51 -44.5v49h54v-133h-54z" />
<glyph unicode="t" horiz-adv-x="320" d="M180 62h124v-62h-190v463h-101v62h101v189h66v-189h116v-62h-116v-401z" />
<glyph unicode="u" horiz-adv-x="640" d="M478 88q-26 -48 -72 -75t-103 -27q-29 0 -56 8.5t-50.5 22.5t-42 32.5t-30.5 38.5q-13 21 -20 51.5t-7 77.5v246h-88v62h154v-283q0 -37 4.5 -71.5t28.5 -66.5q47 -62 126 -56q39 3 68.5 18.5t49.5 38.5q13 16 21 31.5t11.5 32t4.5 34t1 37.5v223h-88v62h154v-463h89v-62 h-155v88z" />
<glyph unicode="v" horiz-adv-x="640" d="M357 0h-74l-188 463h-88v62h241v-62h-80l153 -384l157 384h-84v62h239v-62h-84z" />
<glyph unicode="w" horiz-adv-x="900" d="M641 0h-69l-117 363l-133 -363h-68l-159 463h-88v62h238v-62h-83l132 -377l135 388h55l123 -383l134 372h-85v62h239v-62h-88z" />
<glyph unicode="x" horiz-adv-x="600" d="M489 62h87v-62h-239v62h70l-112 154l-112 -154h70v-62h-238v62h86l149 201l-150 200h-82v62h235v-62h-72l114 -152l112 152h-76v62h236v-62h-81l-147 -200z" />
<glyph unicode="y" horiz-adv-x="640" d="M291 -133h86v-62h-243v62h88l54 129l-185 467h-84v62h240v-62h-83l148 -384l157 384h-82v62h238v-62h-84z" />
<glyph unicode="z" horiz-adv-x="420" d="M412 159v-159h-399v56l301 407h-226v-101h-59v163h368v-61l-295 -402h251v97h59z" />
<glyph unicode="{" horiz-adv-x="300" d="M182 -11q0 -46 15.5 -72t62.5 -40q-30 -1 -56 2.5t-52 22.5t-31.5 47.5t-5.5 57.5v184q0 23 -2.5 39t-18.5 35q-22 25 -58 33q27 5 51 22q22 17 25 38.5t3 46.5v163q0 41 6.5 69.5t23 46t44.5 25t71 5.5q-45 -13 -61.5 -39.5t-16.5 -71.5v-172q0 -26 -3 -47.5t-12 -38.5 t-26.5 -29t-45.5 -18q54 -12 70.5 -43t16.5 -82v-184z" />
<glyph unicode="|" horiz-adv-x="660" d="M356 750v-1000h-62v1000h62z" />
<glyph unicode="}" horiz-adv-x="300" d="M114 603q0 45 -16 71.5t-61 39.5q43 2 71 -5.5t44 -25t22.5 -46t6.5 -69.5v-163q0 -25 3 -46.5t26 -38.5q22 -17 50 -22q-17 -4 -32 -12t-26 -21q-16 -19 -18.5 -35t-2.5 -39v-184q0 -29 -5 -57.5t-31 -47.5t-52 -22t-56 -3q46 14 61.5 40t15.5 72v184q0 51 16.5 82 t70.5 43q-28 6 -45 18t-26.5 29t-12.5 38.5t-3 47.5v172z" />
<glyph unicode="~" horiz-adv-x="660" d="M598 390q-14 -20 -28.5 -38t-31.5 -32.5t-38 -23t-47 -8.5q-27 0 -50.5 7.5t-48.5 16.5l-53 20q-22 8 -46 17t-48 9q-20 0 -35.5 -6.5t-28 -18t-23 -26t-20.5 -29.5l-47 30q14 22 29.5 42t34 35t41 23.5t51.5 8.5t62 -10.5t65 -24.5q33 -13 62.5 -24t52.5 -11 q37 0 59 22.5t41 50.5z" />
<glyph unicode="&#xa1;" horiz-adv-x="140" d="M36 342h69v-532h-69v532zM36 525h69v-109h-69v109z" />
<glyph unicode="&#xa2;" d="M275 510q-29 -5 -53 -18.5t-41.5 -34.5t-27 -47t-9.5 -56q0 -29 10 -54.5t27.5 -46.5t41.5 -35t52 -19v311zM432 443q-16 26 -42.5 44t-56.5 23v-311q31 8 54.5 24t42.5 42h74q-22 -54 -68 -87.5t-103 -44.5v-93h-58v93q-42 4 -78.5 23.5t-63 49.5t-42 68.5t-15.5 80.5 q0 43 15 81.5t42 68t63.5 49t78.5 25.5v94h58v-94q34 -6 62 -21t51 -42v56h47v-129h-61z" />
<glyph unicode="&#xa3;" d="M418 387v-56h-202q32 -32 56.5 -67t24.5 -84q0 -73 -51 -122h85q32 0 65.5 5t61.5 25q26 20 40 50t14 63q0 21 -7 38h65q4 -11 5 -21t1 -21q0 -44 -16.5 -81.5t-50.5 -66.5q-37 -32 -79 -40.5t-90 -8.5h-292v58h115q32 17 46.5 50.5t14.5 68.5q0 25 -8 46t-21.5 40 t-30 35.5t-33.5 32.5h-127v56h88q-20 27 -29.5 54.5t-9.5 61.5q0 46 19 87.5t51.5 72.5t74.5 49t88 18q56 0 96.5 -21.5t73.5 -64.5v69h65v-173h-65q-4 28 -19 51.5t-36.5 40.5t-48.5 26t-55 9q-36 0 -67 -13t-54 -35.5t-36 -54t-13 -67.5q0 -63 47 -110h244z" />
<glyph unicode="&#xa4;" d="M290 515q-36 0 -68 -13.5t-56 -37.5t-37.5 -55.5t-13.5 -67.5t13.5 -67.5t37 -55.5t55 -38t67.5 -14t68 13.5t56 36.5t38 55t14 68t-13.5 68t-37 56t-55.5 38t-68 14zM105 196q-25 30 -37.5 67.5t-12.5 75.5t12.5 76.5t37.5 68.5l-55 53l40 41l54 -54q64 50 145 50 q39 0 76.5 -12.5t67.5 -37.5l54 54l40 -41l-53 -53q26 -32 37.5 -67.5t11.5 -77.5t-12.5 -76t-36.5 -67l53 -54l-41 -39l-53 53q-30 -24 -67 -37.5t-75 -13.5q-43 0 -78 13t-69 38l-53 -53l-41 39z" />
<glyph unicode="&#xa5;" d="M189 0v62h77v174l-17 36h-200v45h181l-24 56h-157v44h136l-103 235h-73v62h212v-62h-76l151 -345l141 345h-77v62h211v-62h-71l-96 -235h136v-44h-156l-24 -56h180v-45h-199l-14 -36v-174h77v-62h-215z" />
<glyph unicode="&#xa6;" horiz-adv-x="660" d="M356 175v-350h-62v350h62zM356 675v-350h-62v350h62z" />
<glyph unicode="&#xa7;" horiz-adv-x="440" d="M216 196q24 0 45 7t36.5 20t25 32.5t9.5 44.5q0 20 -10 38t-25.5 31.5t-35.5 21t-39 7.5q-21 0 -42.5 -6.5t-38 -19.5t-27 -31t-10.5 -42q0 -23 9.5 -41.5t25 -32.5t36 -21.5t41.5 -7.5zM89 38q-2 -29 7.5 -49.5t27 -34.5t41 -20.5t49.5 -6.5q24 0 45.5 7t38 20 t26.5 32.5t10 45.5q0 23 -11.5 43.5t-30.5 34.5q-20 14 -40.5 19t-43.5 10q-30 6 -59 18t-51.5 30.5t-36.5 44.5t-14 62q0 57 33 95t87 51q-43 17 -73 48.5t-30 81.5q0 32 12.5 58.5t34 45.5t50 29.5t59.5 10.5q29 0 58.5 -8t53.5 -24.5t39 -41t15 -57.5l-59 2 q0 19 -9.5 33.5t-24.5 23.5t-33 13.5t-35 4.5q-42 0 -71.5 -26.5t-29.5 -69.5q0 -24 11 -41t28 -30t37 -21.5t39 -14.5q26 -8 48 -16t44 -25q28 -22 44.5 -53t16.5 -67q0 -48 -28.5 -84t-73.5 -52q45 -14 73.5 -49t28.5 -84q0 -38 -15 -67.5t-39.5 -49.5t-57 -30.5 t-68.5 -10.5q-35 0 -68 10.5t-59 31t-42 50t-16 67.5v12z" />
<glyph unicode="&#xa8;" horiz-adv-x="340" d="M141 627h-69v125h69v-125zM268 627h-69v125h69v-125z" />
<glyph unicode="&#xa9;" horiz-adv-x="820" d="M611 265q-11 -32 -31.5 -56t-47.5 -39.5t-58.5 -23t-62.5 -7.5q-48 0 -86.5 16t-65.5 45t-42 69t-15 88q0 49 16.5 91t45.5 72.5t70 47.5t90 17q29 0 59 -7.5t56.5 -22.5t45.5 -38t26 -54l-68 -16q-8 48 -41 72t-81 24q-38 0 -67 -15.5t-48 -41t-28.5 -58.5t-9.5 -68 q0 -36 9 -68t28 -56t47.5 -38.5t66.5 -14.5q50 0 83 26.5t49 74.5zM411 36v2q65 -1 123 24t101 68.5t68 102.5t25 125q0 68 -25 127t-68 103t-101 69.5t-125 25.5q-65 0 -123 -25.5t-101 -69.5t-68 -102.5t-25 -124.5q0 -67 25 -126t68.5 -103.5t101.5 -70t124 -25.5z M407 -14q-76 0 -142.5 29.5t-116 80.5t-78 119t-28.5 145t29 145t79 118.5t117 80t144 29.5q75 0 142 -29t117 -79.5t79 -118t29 -143.5q0 -79 -28.5 -148t-79 -120t-118 -80t-145.5 -29z" />
<glyph unicode="&#xaa;" horiz-adv-x="420" d="M180 446q25 0 47.5 9.5t38.5 26t25.5 38.5t9.5 48q0 25 -9.5 46.5t-26 38t-38 26t-46.5 9.5t-46.5 -9.5t-38 -26t-26 -38.5t-9.5 -47q0 -24 9.5 -46t25.5 -38.5t37.5 -26.5t46.5 -10zM300 466q-20 -32 -53 -48.5t-69 -16.5q-35 0 -71.5 19.5t-56.5 45.5 q-23 30 -29.5 54.5t-6.5 47.5q0 27 8 53.5t26 46.5q32 35 60.5 50t68.5 15q79 0 123 -65v57h98v-44h-52v-229h52v-43h-98v57z" />
<glyph unicode="&#xab;" horiz-adv-x="320" d="M163 241v39l108 161l15 -58l-78 -124l78 -123l-15 -53zM36 241v40l115 171l15 -56l-85 -137l85 -136l-15 -54z" />
<glyph unicode="&#xac;" horiz-adv-x="660" d="M586 402h-582v61h642v-308h-60v247z" />
<glyph unicode="&#xad;" horiz-adv-x="300" d="M26 228v66h248v-66h-248z" />
<glyph unicode="&#xae;" horiz-adv-x="820" d="M437 391q21 0 41.5 2.5t37.5 10.5t27.5 23.5t10.5 41.5q0 24 -10 38.5t-26 22t-35.5 9.5t-37.5 2h-123v-150h115zM609 142h-72l-119 201h-96v-201h-62v445h200q26 0 53.5 -3t51.5 -18q28 -16 40 -43t12 -58q0 -63 -37.5 -91.5t-96.5 -30.5zM414 36v2q66 -1 123.5 25 t100 70t67.5 103t25 125q0 67 -25.5 126t-69 102.5t-102 68.5t-124.5 25q-65 0 -123 -25.5t-101 -69.5t-68 -102.5t-25 -124.5q0 -68 25 -127t68.5 -103t102.5 -69.5t126 -25.5zM409 -14q-77 0 -143.5 30t-116.5 81t-78.5 119t-28.5 145q0 78 29.5 145.5t79.5 118 t117.5 79.5t143.5 29t143.5 -29.5t117 -80.5t78.5 -119t29 -145q0 -78 -29.5 -146t-79.5 -118.5t-118 -79.5t-144 -29z" />
<glyph unicode="&#xaf;" horiz-adv-x="460" d="M391 663h-320v55h320v-55z" />
<glyph unicode="&#xb0;" horiz-adv-x="400" d="M310 583q0 22 -9 42t-24 35t-35 24t-43 9q-22 0 -42 -9t-35 -24t-23.5 -35t-8.5 -42q0 -23 8.5 -43t23.5 -35t35 -23.5t43 -8.5q22 0 42 8.5t35 23.5t24 35t9 43zM350 583q0 -31 -12 -58.5t-32 -47.5t-47.5 -32t-58.5 -12t-58.5 12t-47.5 32t-32 47.5t-12 58.5t11.5 58.5 t32 47.5t48 32t58.5 12t58.5 -12t47.5 -32t32 -47.5t12 -58.5z" />
<glyph unicode="&#xb1;" horiz-adv-x="660" d="M584 165v-61h-508v61h508zM299 449v162h62v-162h223v-61h-223v-162h-62v162h-223v61h223z" />
<glyph unicode="&#xb2;" horiz-adv-x="348" d="M320 397v-104h-295v37l196 177q22 20 39 40.5t17 50.5q0 40 -29.5 67t-72.5 27q-50 0 -76 -30.5t-26 -71.5h-45q0 30 11 56t31 45.5t47.5 30.5t60.5 11q29 0 55.5 -10t46 -28t31 -43t11.5 -55q0 -41 -22.5 -68.5t-51.5 -52.5l-164 -146h195v67h41z" />
<glyph unicode="&#xb3;" horiz-adv-x="348" d="M138 518v34h32q14 0 28 4.5t25.5 13t18.5 22t7 31.5q0 32 -22 53t-57 21q-30 0 -52 -19.5t-24 -48.5h-44q1 23 11 42t27 33t38.5 21.5t45.5 7.5t45.5 -7.5t38 -21.5t26.5 -33.5t10 -42.5q0 -30 -15.5 -55t-46.5 -36q41 -12 66 -44.5t25 -73.5q0 -28 -12 -52.5 t-32.5 -42.5t-47.5 -28.5t-57 -10.5q-31 0 -58.5 9.5t-48.5 26.5t-33.5 41.5t-14.5 53.5h48q3 -38 31.5 -65.5t70.5 -27.5q23 0 42.5 8t33.5 21.5t22 31.5t8 39t-9.5 38.5t-25 30t-35.5 19.5t-41 7h-24z" />
<glyph unicode="&#xb4;" horiz-adv-x="420" d="M71 646l246 139l30 -57l-252 -131z" />
<glyph unicode="&#xb5;" horiz-adv-x="640" d="M478 88h-2q-24 -48 -70 -75t-103 -27q-38 0 -75 15t-65 40v-236h-66v658h-88v62h154v-295q0 -34 8 -67t26.5 -58.5t49 -41t75.5 -15.5q3 0 16 1.5t30.5 7t37 17t35.5 32t26.5 51t10.5 73.5v233h-88v62h154v-463h89v-62h-155v88z" />
<glyph unicode="&#xb6;" horiz-adv-x="500" d="M489 714v-62h-88v-781h-52v781h-82v-781h-53v486q-37 1 -69.5 15t-56.5 37.5t-38 55.5t-14 70q0 39 16 74t45 61q32 29 67 36.5t77 7.5h248z" />
<glyph unicode="&#xb7;" horiz-adv-x="300" d="M185 304h-69v109h69v-109z" />
<glyph unicode="&#xb8;" horiz-adv-x="320" d="M140 -89q8 4 13 5t13 1q34 0 55 -24t21 -57q0 -18 -6.5 -34t-17.5 -28t-26.5 -19t-33.5 -7q-35 0 -58.5 20t-28.5 55h46q5 -13 15 -21t24 -8q18 0 29 12t11 30t-12 29.5t-30 11.5q-24 0 -36 -18l-38 14l39 118h47z" />
<glyph unicode="&#xb9;" horiz-adv-x="348" d="M202 323h64v-37h-174v37h63v357h-93v34h140v-391z" />
<glyph unicode="&#xba;" horiz-adv-x="340" d="M179 445q25 0 47.5 9.5t39 26.5t26 39t9.5 48q0 25 -9.5 47.5t-26 39t-38.5 26t-47 9.5q-26 0 -48 -9.5t-39 -26t-26.5 -39t-9.5 -47.5t9.5 -47.5t26 -39t38.5 -26.5t48 -10zM179 402q-34 0 -64 13t-52.5 35.5t-35.5 52.5t-13 64t13 64.5t35.5 53t52.5 35.5t65 13 q34 0 63.5 -13t52 -35t35.5 -51.5t13 -63.5q0 -35 -12.5 -65.5t-35 -53t-52.5 -36t-65 -13.5z" />
<glyph unicode="&#xbb;" horiz-adv-x="320" d="M36 136l79 123l-79 124l15 58l109 -161v-39l-109 -158zM156 123l85 136l-85 137l15 56l115 -171v-40l-115 -172z" />
<glyph unicode="&#xbc;" horiz-adv-x="870" d="M703 378l-177 -238h177v238zM276 322v-36h-173v36h62v357h-93v35h140v-392h64zM816 105h-68v-68h62v-37h-168v37h61v68h-228v35l218 288h55v-288h68v-35zM224 0l317 714h57l-316 -714h-58z" />
<glyph unicode="&#xbd;" horiz-adv-x="870" d="M832 104v-104h-295v37l196 177q22 20 39 40.5t17 50.5q0 40 -29.5 67t-72.5 27q-50 0 -76 -30.5t-26 -71.5h-45q0 30 11 56t31 45.5t47.5 30.5t60.5 11q29 0 55.5 -10t46 -28t31 -43t11.5 -55q0 -41 -22.5 -68.5t-51.5 -52.5l-164 -146h195v67h41zM202 323h64v-37h-174 v37h63v357h-93v34h140v-391zM237 0l317 714h57l-316 -714h-58z" />
<glyph unicode="&#xbe;" horiz-adv-x="870" d="M148 518v34h32q14 0 28 4.5t25.5 13t18.5 22t7 31.5q0 32 -22 53t-57 21q-30 0 -52 -19.5t-24 -48.5h-44q1 23 11 42t27 33t38.5 21.5t45.5 7.5t45.5 -7.5t38 -21.5t26.5 -33.5t10 -42.5q0 -30 -15.5 -55t-46.5 -36q41 -12 66 -44.5t25 -73.5q0 -28 -12 -52.5 t-32.5 -42.5t-47.5 -28.5t-57 -10.5q-31 0 -58.5 9.5t-48.5 26.5t-33.5 41.5t-14.5 53.5h48q3 -38 31.5 -65.5t70.5 -27.5q23 0 42.5 8t33.5 21.5t22 31.5t8 39t-9.5 38.5t-25 30t-35.5 19.5t-41 7h-24zM271 0l317 714h57l-316 -714h-58zM743 377l-177 -237h177v237z M856 105h-68v-68h62v-37h-168v37h61v68h-228v35l218 288h55v-288h68v-35z" />
<glyph unicode="&#xbf;" horiz-adv-x="520" d="M289 345q0 -34 -7 -62t-20.5 -52t-32.5 -45.5t-43 -43.5q-17 -15 -31 -29t-24.5 -29.5t-16.5 -34t-6 -42.5q0 -32 12 -59.5t33 -47.5t48.5 -32t59.5 -12t59.5 12.5t48 34t32 49.5t11.5 59h70q0 -46 -17 -87t-47 -71.5t-71 -48.5t-87 -18t-86.5 17t-71 47t-48.5 70t-18 86 q0 32 7 55.5t19.5 43.5t30.5 38t40 38q38 35 61 72.5t25 91.5h70zM219 525h70v-109h-70v109z" />
<glyph unicode="&#xc0;" horiz-adv-x="820" d="M518 784l-247 134l28 58l244 -142zM412 633l-146 -344h289zM554 0v66h93l-71 164h-331l-73 -164h90v-66h-255v66h89l259 582h-95v66h187l280 -648h89v-66h-262z" />
<glyph unicode="&#xc1;" horiz-adv-x="820" d="M271 835l246 139l30 -57l-252 -131zM412 633l-146 -344h289zM554 0v66h93l-71 164h-331l-73 -164h90v-66h-255v66h89l259 582h-95v66h187l280 -648h89v-66h-262z" />
<glyph unicode="&#xc2;" horiz-adv-x="820" d="M520 806l-109 82l-107 -82h-83l172 138h39l174 -138h-86zM412 633l-146 -344h289zM554 0v66h93l-71 164h-331l-73 -164h90v-66h-255v66h89l259 582h-95v66h187l280 -648h89v-66h-262z" />
<glyph unicode="&#xc3;" horiz-adv-x="820" d="M571 880q-20 -21 -45 -33.5t-54 -12.5q-20 0 -36 5.5t-30 12t-27.5 12t-27.5 5.5q-18 0 -33 -8.5t-27 -21.5l-39 49q15 17 39 28t47 11q18 0 33 -5.5t29 -11.5q15 -7 30 -12.5t33 -5.5q45 0 71 33zM412 633l-146 -344h289zM554 0v66h93l-71 164h-331l-73 -164h90v-66 h-255v66h89l259 582h-95v66h187l280 -648h89v-66h-262z" />
<glyph unicode="&#xc4;" horiz-adv-x="820" d="M381 816h-69v125h69v-125zM508 816h-69v125h69v-125zM412 633l-146 -344h289zM554 0v66h93l-71 164h-331l-73 -164h90v-66h-255v66h89l259 582h-95v66h187l280 -648h89v-66h-262z" />
<glyph unicode="&#xc5;" horiz-adv-x="820" d="M409 814q26 0 43.5 18.5t17.5 44.5t-18.5 43.5t-43.5 17.5q-27 0 -44.5 -18.5t-17.5 -44.5t18.5 -43.5t44.5 -17.5zM409 770q-23 0 -42.5 8.5t-33.5 22.5t-22.5 33.5t-8.5 42.5q0 22 8.5 41t23 33.5t34 22.5t41.5 8t41 -8.5t33 -23t22.5 -34t8.5 -40.5q0 -22 -8.5 -41 t-22.5 -33.5t-33 -23t-41 -8.5zM412 633l-146 -344h289zM554 0v66h93l-71 164h-331l-73 -164h90v-66h-255v66h89l259 582h-95v66h187l280 -648h89v-66h-262z" />
<glyph unicode="&#xc6;" horiz-adv-x="1000" d="M558 627l-228 -335h228v335zM968 184v-184h-501v66h91v170h-263l-124 -170h91v-66h-255v66h91l405 582h-89v66h554v-184h-72v118h-266v-258h279v-59h-279v-265h266v118h72z" />
<glyph unicode="&#xc7;" horiz-adv-x="740" d="M642 540q-20 30 -47.5 52.5t-60 38t-67.5 23t-71 7.5q-63 0 -117.5 -23t-95.5 -63.5t-64.5 -94.5t-23.5 -117q0 -62 23 -117.5t63 -97t94.5 -66t118.5 -24.5q75 0 140.5 33.5t109.5 95.5h80q-23 -47 -57.5 -84t-77.5 -63t-92.5 -40t-100.5 -14h-9t-8 1l-25 -76q8 4 13 5 t13 1q34 0 55 -24t21 -57q0 -18 -6.5 -34t-17.5 -28t-26.5 -19t-33.5 -7q-35 0 -58.5 20t-28.5 55h46q5 -13 15 -21t24 -8q18 0 29 12t11 30t-12 29.5t-30 11.5q-24 0 -36 -18l-38 14l40 120q-54 8 -107 34t-95 68q-55 54 -82 123t-27 145q0 77 29.5 144.5t82.5 122.5 q48 49 115.5 76t144.5 27q72 0 136 -25.5t111 -77.5v84h66v-174h-66z" />
<glyph unicode="&#xc8;" horiz-adv-x="560" d="M388 784l-247 134l28 58l244 -142zM527 184v-184h-503v66h91v582h-91v66h503v-184h-72v118h-268v-258h276v-59h-276v-265h268v118h72z" />
<glyph unicode="&#xc9;" horiz-adv-x="560" d="M141 835l246 139l30 -57l-252 -131zM527 184v-184h-503v66h91v582h-91v66h503v-184h-72v118h-268v-258h276v-59h-276v-265h268v118h72z" />
<glyph unicode="&#xca;" horiz-adv-x="560" d="M390 806l-109 82l-107 -82h-83l172 138h39l174 -138h-86zM527 184v-184h-503v66h91v582h-91v66h503v-184h-72v118h-268v-258h276v-59h-276v-265h268v118h72z" />
<glyph unicode="&#xcb;" horiz-adv-x="560" d="M251 816h-69v125h69v-125zM378 816h-69v125h69v-125zM527 184v-184h-503v66h91v582h-91v66h503v-184h-72v118h-268v-258h276v-59h-276v-265h268v118h72z" />
<glyph unicode="&#xcc;" horiz-adv-x="300" d="M258 784l-247 134l28 58l244 -142zM187 66h91v-66h-254v66h91v582h-91v66h254v-66h-91v-582z" />
<glyph unicode="&#xcd;" horiz-adv-x="300" d="M11 835l246 139l30 -57l-252 -131zM187 66h91v-66h-254v66h91v582h-91v66h254v-66h-91v-582z" />
<glyph unicode="&#xce;" horiz-adv-x="300" d="M260 806l-109 82l-107 -82h-83l172 138h39l174 -138h-86zM187 66h91v-66h-254v66h91v582h-91v66h254v-66h-91v-582z" />
<glyph unicode="&#xcf;" horiz-adv-x="300" d="M121 816h-69v125h69v-125zM248 816h-69v125h69v-125zM187 66h91v-66h-254v66h91v582h-91v66h254v-66h-91v-582z" />
<glyph unicode="&#xd0;" horiz-adv-x="720" d="M187 389h164v-56h-164v-267h140q65 0 118.5 15t99.5 64q39 42 61.5 98t22.5 113q0 60 -22.5 119t-67.5 101q-24 22 -47.5 36.5t-49 22t-53 10.5t-59.5 3h-143v-259zM23 389h92v259h-92v66h318q76 0 137 -21t117 -76q53 -52 79.5 -120t26.5 -142q0 -71 -26.5 -136.5 t-75.5 -117.5q-55 -58 -117.5 -79.5t-140.5 -21.5h-318v66h92v267h-92v56z" />
<glyph unicode="&#xd1;" horiz-adv-x="800" d="M561 880q-20 -21 -45 -33.5t-54 -12.5q-20 0 -36 5.5t-30 12t-27.5 12t-27.5 5.5q-18 0 -33 -8.5t-27 -21.5l-39 49q15 17 39 28t47 11q18 0 33 -5.5t29 -11.5q15 -7 30 -12.5t33 -5.5q45 0 71 33zM688 0h-74l-427 597v-531h92v-66h-255v66h91v582h-91v66h164l428 -600 v534h-91v66h254v-66h-91v-648z" />
<glyph unicode="&#xd2;" horiz-adv-x="800" d="M508 784l-247 134l28 58l244 -142zM399 57q63 0 118 24t96.5 65.5t65 96.5t23.5 118q0 61 -23.5 116t-64.5 95.5t-96 64.5t-118 24t-118.5 -23.5t-97 -64t-65.5 -95.5t-24 -117q0 -63 23.5 -118t65 -96.5t97 -65t118.5 -23.5v-1zM400 -14q-78 0 -146.5 29t-120 79.5 t-81 118.5t-29.5 146t29.5 146t80.5 119t120 80t147 29q77 0 145 -29t119 -79.5t80.5 -117.5t29.5 -143q0 -78 -29 -147t-79.5 -120t-119 -81t-146.5 -30z" />
<glyph unicode="&#xd3;" horiz-adv-x="800" d="M261 835l246 139l30 -57l-252 -131zM399 57q63 0 118 24t96.5 65.5t65 96.5t23.5 118q0 61 -23.5 116t-64.5 95.5t-96 64.5t-118 24t-118.5 -23.5t-97 -64t-65.5 -95.5t-24 -117q0 -63 23.5 -118t65 -96.5t97 -65t118.5 -23.5v-1zM400 -14q-78 0 -146.5 29t-120 79.5 t-81 118.5t-29.5 146t29.5 146t80.5 119t120 80t147 29q77 0 145 -29t119 -79.5t80.5 -117.5t29.5 -143q0 -78 -29 -147t-79.5 -120t-119 -81t-146.5 -30z" />
<glyph unicode="&#xd4;" horiz-adv-x="800" d="M510 806l-109 82l-107 -82h-83l172 138h39l174 -138h-86zM399 57q63 0 118 24t96.5 65.5t65 96.5t23.5 118q0 61 -23.5 116t-64.5 95.5t-96 64.5t-118 24t-118.5 -23.5t-97 -64t-65.5 -95.5t-24 -117q0 -63 23.5 -118t65 -96.5t97 -65t118.5 -23.5v-1zM400 -14 q-78 0 -146.5 29t-120 79.5t-81 118.5t-29.5 146t29.5 146t80.5 119t120 80t147 29q77 0 145 -29t119 -79.5t80.5 -117.5t29.5 -143q0 -78 -29 -147t-79.5 -120t-119 -81t-146.5 -30z" />
<glyph unicode="&#xd5;" horiz-adv-x="800" d="M561 880q-20 -21 -45 -33.5t-54 -12.5q-20 0 -36 5.5t-30 12t-27.5 12t-27.5 5.5q-18 0 -33 -8.5t-27 -21.5l-39 49q15 17 39 28t47 11q18 0 33 -5.5t29 -11.5q15 -7 30 -12.5t33 -5.5q45 0 71 33zM399 57q63 0 118 24t96.5 65.5t65 96.5t23.5 118q0 61 -23.5 116 t-64.5 95.5t-96 64.5t-118 24t-118.5 -23.5t-97 -64t-65.5 -95.5t-24 -117q0 -63 23.5 -118t65 -96.5t97 -65t118.5 -23.5v-1zM400 -14q-78 0 -146.5 29t-120 79.5t-81 118.5t-29.5 146t29.5 146t80.5 119t120 80t147 29q77 0 145 -29t119 -79.5t80.5 -117.5t29.5 -143 q0 -78 -29 -147t-79.5 -120t-119 -81t-146.5 -30z" />
<glyph unicode="&#xd6;" horiz-adv-x="800" d="M371 816h-69v125h69v-125zM498 816h-69v125h69v-125zM399 57q63 0 118 24t96.5 65.5t65 96.5t23.5 118q0 61 -23.5 116t-64.5 95.5t-96 64.5t-118 24t-118.5 -23.5t-97 -64t-65.5 -95.5t-24 -117q0 -63 23.5 -118t65 -96.5t97 -65t118.5 -23.5v-1zM400 -14 q-78 0 -146.5 29t-120 79.5t-81 118.5t-29.5 146t29.5 146t80.5 119t120 80t147 29q77 0 145 -29t119 -79.5t80.5 -117.5t29.5 -143q0 -78 -29 -147t-79.5 -120t-119 -81t-146.5 -30z" />
<glyph unicode="&#xd7;" horiz-adv-x="660" d="M286 358l-180 180l44 44l180 -180l180 180l44 -44l-180 -180l180 -180l-44 -44l-180 180l-180 -180l-44 44z" />
<glyph unicode="&#xd8;" horiz-adv-x="800" d="M569 607q-42 26 -80.5 40t-88.5 14q-64 0 -119.5 -23.5t-97 -65t-65 -96.5t-23.5 -118q0 -65 24.5 -116.5t69.5 -98.5zM231 108q40 -23 79 -36.5t86 -13.5q64 0 120 24t96.5 65t64 96.5t23.5 118.5t-23.5 114t-66.5 96zM97 -58l-43 35l88 107q-119 111 -119 273 q0 79 29.5 147.5t80.5 119.5t120 80t149 29q30 0 55.5 -4t49.5 -12t47.5 -20t48.5 -27l11 -6l81 99l43 -34l-81 -99q115 -112 115 -273q0 -76 -29.5 -143.5t-80 -118t-118.5 -80t-145 -29.5q-48 0 -95.5 11.5t-89.5 34.5l-31 17z" />
<glyph unicode="&#xd9;" horiz-adv-x="700" d="M458 784l-247 134l28 58l244 -142zM582 237q0 -50 -11 -93t-46 -83q-33 -37 -78.5 -56t-96.5 -19t-95.5 17.5t-79.5 55.5q-38 42 -48.5 87.5t-10.5 99.5v402h-91v66h249v-66h-86v-394q0 -36 4.5 -69t25.5 -64q23 -32 57 -47.5t74 -15.5q37 0 69 13t55 42q25 32 31 67 t6 73v395h-86v66h249v-66h-91v-411z" />
<glyph unicode="&#xda;" horiz-adv-x="700" d="M211 835l246 139l30 -57l-252 -131zM582 237q0 -50 -11 -93t-46 -83q-33 -37 -78.5 -56t-96.5 -19t-95.5 17.5t-79.5 55.5q-38 42 -48.5 87.5t-10.5 99.5v402h-91v66h249v-66h-86v-394q0 -36 4.5 -69t25.5 -64q23 -32 57 -47.5t74 -15.5q37 0 69 13t55 42q25 32 31 67 t6 73v395h-86v66h249v-66h-91v-411z" />
<glyph unicode="&#xdb;" horiz-adv-x="700" d="M460 806l-109 82l-107 -82h-83l172 138h39l174 -138h-86zM582 237q0 -50 -11 -93t-46 -83q-33 -37 -78.5 -56t-96.5 -19t-95.5 17.5t-79.5 55.5q-38 42 -48.5 87.5t-10.5 99.5v402h-91v66h249v-66h-86v-394q0 -36 4.5 -69t25.5 -64q23 -32 57 -47.5t74 -15.5q37 0 69 13 t55 42q25 32 31 67t6 73v395h-86v66h249v-66h-91v-411z" />
<glyph unicode="&#xdc;" horiz-adv-x="700" d="M321 816h-69v125h69v-125zM448 816h-69v125h69v-125zM582 237q0 -50 -11 -93t-46 -83q-33 -37 -78.5 -56t-96.5 -19t-95.5 17.5t-79.5 55.5q-38 42 -48.5 87.5t-10.5 99.5v402h-91v66h249v-66h-86v-394q0 -36 4.5 -69t25.5 -64q23 -32 57 -47.5t74 -15.5q37 0 69 13 t55 42q25 32 31 67t6 73v395h-86v66h249v-66h-91v-411z" />
<glyph unicode="&#xdd;" horiz-adv-x="680" d="M201 835l246 139l30 -57l-252 -131zM381 66h91v-66h-255v66h92v174l-217 408h-85v66h249v-66h-88l177 -340l168 340h-92v66h250v-66h-85l-205 -408v-174z" />
<glyph unicode="&#xde;" d="M316 225q36 0 68 8t56 25.5t38 45t14 66.5q0 36 -14.5 62.5t-39.5 44t-57 25.5t-66 8h-128v-285h129zM187 66h91v-66h-254v66h91v582h-91v66h254v-66h-91v-72h129q50 0 95 -12.5t79 -37.5t54 -63.5t20 -90.5q0 -53 -19 -92.5t-51.5 -66.5t-76.5 -40.5t-94 -13.5h-136v-93 z" />
<glyph unicode="&#xdf;" d="M101 494q0 45 8 81.5t37 73.5t72 57.5t90 20.5q40 0 76.5 -15t64 -41t43.5 -61t16 -76q0 -54 -27 -98t-79 -63q37 -5 67 -21t51 -41.5t32.5 -58.5t11.5 -70q0 -43 -15 -79.5t-41.5 -62.5t-63.5 -41t-80 -15q-52 0 -99 25v64q23 -14 43 -20.5t47 -6.5q29 0 54.5 11 t44 29.5t29.5 44t11 54.5q0 32 -15 62t-39 50q-27 21 -58.5 28t-64.5 7h-25l-9 -1v62q31 -2 58.5 6.5t48.5 26.5t33.5 44t12.5 58q0 27 -10 51t-28 41.5t-42 28t-51 10.5q-32 0 -60 -15t-47 -41q-20 -29 -23 -58t-3 -62v-483h-159v62h88v432z" />
<glyph unicode="&#xe0;" horiz-adv-x="660" d="M438 595l-247 134l28 58l244 -142zM292 469q-44 0 -82.5 -16.5t-67 -45t-45.5 -67t-17 -81.5q0 -42 16.5 -80t45 -66.5t66.5 -45.5t81 -17q45 0 83.5 16.5t67 45t45 67t16.5 82.5q0 43 -16.5 81t-45 66t-66.5 44.5t-81 16.5zM500 109q-35 -60 -90 -91.5t-124 -31.5 q-72 0 -133.5 33t-96.5 90q-20 32 -32 69.5t-10 81.5q0 28 4 50t10 39t14 31.5t16 29.5q16 28 40 51t54 39.5t63.5 25t69.5 8.5q72 0 125.5 -32t89.5 -92v115h153v-62h-87v-401h87v-62h-153v109z" />
<glyph unicode="&#xe1;" horiz-adv-x="660" d="M191 646l246 139l30 -57l-252 -131zM292 469q-44 0 -82.5 -16.5t-67 -45t-45.5 -67t-17 -81.5q0 -42 16.5 -80t45 -66.5t66.5 -45.5t81 -17q45 0 83.5 16.5t67 45t45 67t16.5 82.5q0 43 -16.5 81t-45 66t-66.5 44.5t-81 16.5zM500 109q-35 -60 -90 -91.5t-124 -31.5 q-72 0 -133.5 33t-96.5 90q-20 32 -32 69.5t-10 81.5q0 28 4 50t10 39t14 31.5t16 29.5q16 28 40 51t54 39.5t63.5 25t69.5 8.5q72 0 125.5 -32t89.5 -92v115h153v-62h-87v-401h87v-62h-153v109z" />
<glyph unicode="&#xe2;" horiz-adv-x="660" d="M440 617l-109 82l-107 -82h-83l172 138h39l174 -138h-86zM292 469q-44 0 -82.5 -16.5t-67 -45t-45.5 -67t-17 -81.5q0 -42 16.5 -80t45 -66.5t66.5 -45.5t81 -17q45 0 83.5 16.5t67 45t45 67t16.5 82.5q0 43 -16.5 81t-45 66t-66.5 44.5t-81 16.5zM500 109 q-35 -60 -90 -91.5t-124 -31.5q-72 0 -133.5 33t-96.5 90q-20 32 -32 69.5t-10 81.5q0 28 4 50t10 39t14 31.5t16 29.5q16 28 40 51t54 39.5t63.5 25t69.5 8.5q72 0 125.5 -32t89.5 -92v115h153v-62h-87v-401h87v-62h-153v109z" />
<glyph unicode="&#xe3;" horiz-adv-x="660" d="M491 691q-20 -21 -45 -33.5t-54 -12.5q-20 0 -36 5.5t-30 12t-27.5 12t-27.5 5.5q-18 0 -33 -8.5t-27 -21.5l-39 49q15 17 39 28t47 11q18 0 33 -5.5t29 -11.5q15 -7 30 -12.5t33 -5.5q45 0 71 33zM292 469q-44 0 -82.5 -16.5t-67 -45t-45.5 -67t-17 -81.5 q0 -42 16.5 -80t45 -66.5t66.5 -45.5t81 -17q45 0 83.5 16.5t67 45t45 67t16.5 82.5q0 43 -16.5 81t-45 66t-66.5 44.5t-81 16.5zM500 109q-35 -60 -90 -91.5t-124 -31.5q-72 0 -133.5 33t-96.5 90q-20 32 -32 69.5t-10 81.5q0 28 4 50t10 39t14 31.5t16 29.5q16 28 40 51 t54 39.5t63.5 25t69.5 8.5q72 0 125.5 -32t89.5 -92v115h153v-62h-87v-401h87v-62h-153v109z" />
<glyph unicode="&#xe4;" horiz-adv-x="660" d="M301 627h-69v125h69v-125zM428 627h-69v125h69v-125zM292 469q-44 0 -82.5 -16.5t-67 -45t-45.5 -67t-17 -81.5q0 -42 16.5 -80t45 -66.5t66.5 -45.5t81 -17q45 0 83.5 16.5t67 45t45 67t16.5 82.5q0 43 -16.5 81t-45 66t-66.5 44.5t-81 16.5zM500 109q-35 -60 -90 -91.5 t-124 -31.5q-72 0 -133.5 33t-96.5 90q-20 32 -32 69.5t-10 81.5q0 28 4 50t10 39t14 31.5t16 29.5q16 28 40 51t54 39.5t63.5 25t69.5 8.5q72 0 125.5 -32t89.5 -92v115h153v-62h-87v-401h87v-62h-153v109z" />
<glyph unicode="&#xe5;" horiz-adv-x="660" d="M329 625q26 0 43.5 18.5t17.5 44.5t-18.5 43.5t-43.5 17.5q-27 0 -44.5 -18.5t-17.5 -44.5t18.5 -43.5t44.5 -17.5zM329 581q-23 0 -42.5 8.5t-33.5 22.5t-22.5 33.5t-8.5 42.5q0 22 8.5 41t23 33.5t34 22.5t41.5 8t41 -8.5t33 -23t22.5 -34t8.5 -40.5q0 -22 -8.5 -41 t-22.5 -33.5t-33 -23t-41 -8.5zM292 469q-44 0 -82.5 -16.5t-67 -45t-45.5 -67t-17 -81.5q0 -42 16.5 -80t45 -66.5t66.5 -45.5t81 -17q45 0 83.5 16.5t67 45t45 67t16.5 82.5q0 43 -16.5 81t-45 66t-66.5 44.5t-81 16.5zM500 109q-35 -60 -90 -91.5t-124 -31.5 q-72 0 -133.5 33t-96.5 90q-20 32 -32 69.5t-10 81.5q0 28 4 50t10 39t14 31.5t16 29.5q16 28 40 51t54 39.5t63.5 25t69.5 8.5q72 0 125.5 -32t89.5 -92v115h153v-62h-87v-401h87v-62h-153v109z" />
<glyph unicode="&#xe6;" horiz-adv-x="1060" d="M985 293q-6 38 -24.5 70t-47 55.5t-63.5 36.5t-74 13q-40 0 -75 -12.5t-63 -35.5t-47 -55.5t-26 -71.5h420zM290 51q45 0 83.5 16.5t66.5 45t43.5 67.5t15.5 84q0 43 -16.5 80.5t-45 65t-66 43t-80.5 15.5q-42 0 -80.5 -16t-67.5 -43.5t-46 -64.5t-17 -80q0 -44 16 -82.5 t44.5 -67.5t67 -46t82.5 -17zM565 403q34 63 89.5 97t128.5 34q81 0 139.5 -38t89.5 -93q18 -32 28.5 -67.5t10.5 -77.5v-18h-486q3 -41 21.5 -75.5t47 -60t65 -39.5t76.5 -14q30 0 54.5 6t45.5 18t40 30t38 43h76l-21 -35q-34 -57 -91.5 -92t-132.5 -35q-34 0 -66.5 8.5 t-61 25t-52 40t-39.5 53.5v-113h-66v119q-30 -63 -84 -98t-126 -35q-75 0 -138 36.5t-99 96.5q-23 37 -30.5 70.5t-7.5 67.5q0 37 10 78.5t36 74.5q45 58 103 91t123 33q68 0 124.5 -32.5t88.5 -91.5v115h66v-122z" />
<glyph unicode="&#xe7;" horiz-adv-x="560" d="M529 367h-62q-29 47 -77 74t-103 27q-44 0 -81.5 -16.5t-65.5 -45t-44 -67t-16 -81.5q0 -44 16.5 -81.5t45 -65.5t67.5 -43.5t83 -15.5q28 0 55.5 7.5t51 22t42.5 35.5t31 47h74q-15 -41 -41 -73.5t-60 -55.5t-74 -36t-83 -13l-24 -75q8 4 13 5t13 1q34 0 55 -24t21 -57 q0 -18 -6.5 -34t-17.5 -28t-26.5 -19t-33.5 -7q-35 0 -58.5 20t-28.5 55h46q5 -13 15 -21t24 -8q18 0 29 12t11 30t-12 29.5t-30 11.5q-24 0 -36 -18l-38 14l39 118q-49 7 -91 31t-72.5 60t-48 80.5t-17.5 94.5q0 57 20.5 106.5t56.5 86.5q38 38 86.5 61t105.5 23 q56 0 102 -21.5t82 -62.5v75h62v-158z" />
<glyph unicode="&#xe8;" d="M398 595l-247 134l28 58l244 -142zM497 292q-6 40 -25 73.5t-48 57.5t-65.5 37.5t-76.5 13.5q-38 0 -72.5 -14.5t-62 -39.5t-46 -58t-22.5 -70h418zM537 147q-17 -37 -42.5 -66.5t-58.5 -50.5t-71 -32.5t-78 -11.5q-57 0 -106.5 21t-87 58t-59 86.5t-21.5 105.5t21 106 t57 88t85.5 60.5t106.5 22.5q58 0 108.5 -21.5t88 -58.5t58.5 -87.5t21 -108.5v-20h-480q2 -41 19.5 -76t45.5 -61t64 -41t77 -15q57 0 105 26t77 76h70z" />
<glyph unicode="&#xe9;" d="M151 646l246 139l30 -57l-252 -131zM497 292q-6 40 -25 73.5t-48 57.5t-65.5 37.5t-76.5 13.5q-38 0 -72.5 -14.5t-62 -39.5t-46 -58t-22.5 -70h418zM537 147q-17 -37 -42.5 -66.5t-58.5 -50.5t-71 -32.5t-78 -11.5q-57 0 -106.5 21t-87 58t-59 86.5t-21.5 105.5t21 106 t57 88t85.5 60.5t106.5 22.5q58 0 108.5 -21.5t88 -58.5t58.5 -87.5t21 -108.5v-20h-480q2 -41 19.5 -76t45.5 -61t64 -41t77 -15q57 0 105 26t77 76h70z" />
<glyph unicode="&#xea;" d="M400 617l-109 82l-107 -82h-83l172 138h39l174 -138h-86zM497 292q-6 40 -25 73.5t-48 57.5t-65.5 37.5t-76.5 13.5q-38 0 -72.5 -14.5t-62 -39.5t-46 -58t-22.5 -70h418zM537 147q-17 -37 -42.5 -66.5t-58.5 -50.5t-71 -32.5t-78 -11.5q-57 0 -106.5 21t-87 58t-59 86.5 t-21.5 105.5t21 106t57 88t85.5 60.5t106.5 22.5q58 0 108.5 -21.5t88 -58.5t58.5 -87.5t21 -108.5v-20h-480q2 -41 19.5 -76t45.5 -61t64 -41t77 -15q57 0 105 26t77 76h70z" />
<glyph unicode="&#xeb;" d="M261 627h-69v125h69v-125zM388 627h-69v125h69v-125zM497 292q-6 40 -25 73.5t-48 57.5t-65.5 37.5t-76.5 13.5q-38 0 -72.5 -14.5t-62 -39.5t-46 -58t-22.5 -70h418zM537 147q-17 -37 -42.5 -66.5t-58.5 -50.5t-71 -32.5t-78 -11.5q-57 0 -106.5 21t-87 58t-59 86.5 t-21.5 105.5t21 106t57 88t85.5 60.5t106.5 22.5q58 0 108.5 -21.5t88 -58.5t58.5 -87.5t21 -108.5v-20h-480q2 -41 19.5 -76t45.5 -61t64 -41t77 -15q57 0 105 26t77 76h70z" />
<glyph unicode="&#xec;" horiz-adv-x="260" d="M238 595l-247 134l28 58l244 -142zM171 62h88v-62h-244v62h90v401h-88v62h154v-463z" />
<glyph unicode="&#xed;" horiz-adv-x="260" d="M-9 646l246 139l30 -57l-252 -131zM171 62h88v-62h-244v62h90v401h-88v62h154v-463z" />
<glyph unicode="&#xee;" horiz-adv-x="260" d="M240 617l-109 82l-107 -82h-83l172 138h39l174 -138h-86zM171 62h88v-62h-244v62h90v401h-88v62h154v-463z" />
<glyph unicode="&#xef;" horiz-adv-x="260" d="M101 627h-69v125h69v-125zM228 627h-69v125h69v-125zM171 62h88v-62h-244v62h90v401h-88v62h154v-463z" />
<glyph unicode="&#xf0;" d="M288 51q43 0 81.5 16.5t66.5 45t44.5 66.5t16.5 81t-16 81t-44.5 66.5t-66.5 45t-81 16.5q-44 0 -82 -16.5t-66.5 -44.5t-45 -66t-16.5 -81t16 -81t44.5 -66.5t66.5 -45.5t82 -17zM134 546l-48 37l138 53q-35 17 -63.5 29t-47.5 17l74 32q12 -4 42.5 -15.5t70.5 -33.5 l127 49l45 -36l-119 -46q36 -26 73.5 -60.5t67.5 -78.5t49.5 -97.5t19.5 -115.5q0 -63 -21.5 -117t-58.5 -93.5t-87 -61.5t-108 -22q-57 0 -107 21.5t-87.5 58.5t-59 87t-21.5 106q0 57 22 107.5t59.5 87.5t88 58.5t107.5 21.5q68 0 132 -52q-29 39 -69 71t-72 51z" />
<glyph unicode="&#xf1;" horiz-adv-x="660" d="M491 691q-20 -21 -45 -33.5t-54 -12.5q-20 0 -36 5.5t-30 12t-27.5 12t-27.5 5.5q-18 0 -33 -8.5t-27 -21.5l-39 49q15 17 39 28t47 11q18 0 33 -5.5t29 -11.5q15 -7 30 -12.5t33 -5.5q45 0 71 33zM169 433q25 49 73.5 75t102.5 26q22 0 48.5 -6t51.5 -18.5t46.5 -31.5 t34.5 -45q10 -20 19.5 -54.5t9.5 -82.5v-234h88v-62h-242v62h88v210q0 35 -3.5 68.5t-21.5 64.5q-11 18 -26.5 30.5t-34 20t-38 10.5t-38.5 3q-35 0 -67.5 -14.5t-55.5 -40.5q-26 -30 -30.5 -63.5t-4.5 -70.5v-218h88v-62h-242v62h88v401h-88v62h154v-92z" />
<glyph unicode="&#xf2;" d="M398 595l-247 134l28 58l244 -142zM288 51q43 0 81.5 16.5t66.5 45t44.5 66.5t16.5 81t-16 81t-44.5 66.5t-66.5 45t-81 16.5q-44 0 -82 -16.5t-66.5 -44.5t-45 -66t-16.5 -81t16 -81t44.5 -66.5t66.5 -45.5t82 -17zM288 -14q-57 0 -107 21.5t-87.5 58.5t-59 87 t-21.5 106q0 57 22 107.5t59.5 87.5t88 58.5t107.5 21.5q56 0 105.5 -21.5t87 -58t59 -86t21.5 -104.5q0 -57 -21.5 -108t-58.5 -88.5t-87 -59.5t-108 -22z" />
<glyph unicode="&#xf3;" d="M151 646l246 139l30 -57l-252 -131zM288 51q43 0 81.5 16.5t66.5 45t44.5 66.5t16.5 81t-16 81t-44.5 66.5t-66.5 45t-81 16.5q-44 0 -82 -16.5t-66.5 -44.5t-45 -66t-16.5 -81t16 -81t44.5 -66.5t66.5 -45.5t82 -17zM288 -14q-57 0 -107 21.5t-87.5 58.5t-59 87 t-21.5 106q0 57 22 107.5t59.5 87.5t88 58.5t107.5 21.5q56 0 105.5 -21.5t87 -58t59 -86t21.5 -104.5q0 -57 -21.5 -108t-58.5 -88.5t-87 -59.5t-108 -22z" />
<glyph unicode="&#xf4;" d="M400 617l-109 82l-107 -82h-83l172 138h39l174 -138h-86zM288 51q43 0 81.5 16.5t66.5 45t44.5 66.5t16.5 81t-16 81t-44.5 66.5t-66.5 45t-81 16.5q-44 0 -82 -16.5t-66.5 -44.5t-45 -66t-16.5 -81t16 -81t44.5 -66.5t66.5 -45.5t82 -17zM288 -14q-57 0 -107 21.5 t-87.5 58.5t-59 87t-21.5 106q0 57 22 107.5t59.5 87.5t88 58.5t107.5 21.5q56 0 105.5 -21.5t87 -58t59 -86t21.5 -104.5q0 -57 -21.5 -108t-58.5 -88.5t-87 -59.5t-108 -22z" />
<glyph unicode="&#xf5;" d="M451 691q-20 -21 -45 -33.5t-54 -12.5q-20 0 -36 5.5t-30 12t-27.5 12t-27.5 5.5q-18 0 -33 -8.5t-27 -21.5l-39 49q15 17 39 28t47 11q18 0 33 -5.5t29 -11.5q15 -7 30 -12.5t33 -5.5q45 0 71 33zM288 51q43 0 81.5 16.5t66.5 45t44.5 66.5t16.5 81t-16 81t-44.5 66.5 t-66.5 45t-81 16.5q-44 0 -82 -16.5t-66.5 -44.5t-45 -66t-16.5 -81t16 -81t44.5 -66.5t66.5 -45.5t82 -17zM288 -14q-57 0 -107 21.5t-87.5 58.5t-59 87t-21.5 106q0 57 22 107.5t59.5 87.5t88 58.5t107.5 21.5q56 0 105.5 -21.5t87 -58t59 -86t21.5 -104.5 q0 -57 -21.5 -108t-58.5 -88.5t-87 -59.5t-108 -22z" />
<glyph unicode="&#xf6;" d="M261 627h-69v125h69v-125zM388 627h-69v125h69v-125zM288 51q43 0 81.5 16.5t66.5 45t44.5 66.5t16.5 81t-16 81t-44.5 66.5t-66.5 45t-81 16.5q-44 0 -82 -16.5t-66.5 -44.5t-45 -66t-16.5 -81t16 -81t44.5 -66.5t66.5 -45.5t82 -17zM288 -14q-57 0 -107 21.5 t-87.5 58.5t-59 87t-21.5 106q0 57 22 107.5t59.5 87.5t88 58.5t107.5 21.5q56 0 105.5 -21.5t87 -58t59 -86t21.5 -104.5q0 -57 -21.5 -108t-58.5 -88.5t-87 -59.5t-108 -22z" />
<glyph unicode="&#xf7;" horiz-adv-x="660" d="M361 575v-109h-62v109h62zM299 249h62v-109h-62v109zM78 327v61h504v-61h-504z" />
<glyph unicode="&#xf8;" d="M393 443q-26 14 -50 21t-55 7q-42 0 -80 -16.5t-66.5 -44.5t-45 -65.5t-16.5 -79.5q0 -47 18.5 -86t52.5 -71zM192 76q26 -12 48 -18t52 -6q45 0 83.5 16.5t66 45t43.5 66.5t16 82q0 45 -18.5 82.5t-49.5 67.5zM95 -54l-41 31l55 76q-46 40 -70.5 92.5t-24.5 113.5 q0 58 22 108.5t59.5 87.5t88 58t108.5 21q76 0 141 -37l56 78l41 -31l-56 -77q42 -39 67.5 -90.5t25.5 -110.5t-21 -110t-58.5 -89t-88.5 -59.5t-110 -21.5q-38 0 -71.5 9t-67.5 28z" />
<glyph unicode="&#xf9;" horiz-adv-x="640" d="M428 595l-247 134l28 58l244 -142zM478 88q-26 -48 -72 -75t-103 -27q-29 0 -56 8.5t-50.5 22.5t-42 32.5t-30.5 38.5q-13 21 -20 51.5t-7 77.5v246h-88v62h154v-283q0 -37 4.5 -71.5t28.5 -66.5q47 -62 126 -56q39 3 68.5 18.5t49.5 38.5q13 16 21 31.5t11.5 32t4.5 34 t1 37.5v223h-88v62h154v-463h89v-62h-155v88z" />
<glyph unicode="&#xfa;" horiz-adv-x="640" d="M181 646l246 139l30 -57l-252 -131zM478 88q-26 -48 -72 -75t-103 -27q-29 0 -56 8.5t-50.5 22.5t-42 32.5t-30.5 38.5q-13 21 -20 51.5t-7 77.5v246h-88v62h154v-283q0 -37 4.5 -71.5t28.5 -66.5q47 -62 126 -56q39 3 68.5 18.5t49.5 38.5q13 16 21 31.5t11.5 32t4.5 34 t1 37.5v223h-88v62h154v-463h89v-62h-155v88z" />
<glyph unicode="&#xfb;" horiz-adv-x="640" d="M430 617l-109 82l-107 -82h-83l172 138h39l174 -138h-86zM478 88q-26 -48 -72 -75t-103 -27q-29 0 -56 8.5t-50.5 22.5t-42 32.5t-30.5 38.5q-13 21 -20 51.5t-7 77.5v246h-88v62h154v-283q0 -37 4.5 -71.5t28.5 -66.5q47 -62 126 -56q39 3 68.5 18.5t49.5 38.5 q13 16 21 31.5t11.5 32t4.5 34t1 37.5v223h-88v62h154v-463h89v-62h-155v88z" />
<glyph unicode="&#xfc;" horiz-adv-x="640" d="M291 627h-69v125h69v-125zM418 627h-69v125h69v-125zM478 88q-26 -48 -72 -75t-103 -27q-29 0 -56 8.5t-50.5 22.5t-42 32.5t-30.5 38.5q-13 21 -20 51.5t-7 77.5v246h-88v62h154v-283q0 -37 4.5 -71.5t28.5 -66.5q47 -62 126 -56q39 3 68.5 18.5t49.5 38.5 q13 16 21 31.5t11.5 32t4.5 34t1 37.5v223h-88v62h154v-463h89v-62h-155v88z" />
<glyph unicode="&#xfd;" horiz-adv-x="640" d="M181 646l246 139l30 -57l-252 -131zM291 -133h86v-62h-243v62h88l54 129l-185 467h-84v62h240v-62h-83l148 -384l157 384h-82v62h238v-62h-84z" />
<glyph unicode="&#xfe;" horiz-adv-x="660" d="M378 48q43 0 81.5 17t67 45.5t45.5 67t17 82.5q0 49 -17 89t-45.5 68t-66 42.5t-78.5 12.5q-43 -2 -81.5 -17t-68 -42t-47 -65.5t-17.5 -86.5q0 -44 16.5 -82.5t45 -67.5t66.5 -46t82 -17zM169 408h2q33 62 88.5 94t126.5 32q57 0 106 -21.5t85.5 -59t57 -87t20.5 -106.5 t-21 -106.5t-57.5 -87t-85.5 -59t-105 -21.5q-33 0 -65.5 8.5t-60.5 24.5t-51 39t-38 53h-2v-244h88v-62h-242v62h88v785h-88v62h154v-306z" />
<glyph unicode="&#xff;" horiz-adv-x="640" d="M291 627h-69v125h69v-125zM418 627h-69v125h69v-125zM291 -133h86v-62h-243v62h88l54 129l-185 467h-84v62h240v-62h-83l148 -384l157 384h-82v62h238v-62h-84z" />
<glyph unicode="&#x131;" horiz-adv-x="260" d="M171 62h88v-62h-244v62h90v401h-88v62h154v-463z" />
<glyph unicode="&#x141;" horiz-adv-x="520" d="M503 0h-469v66h91v252l-101 -76v71l101 74v261h-91v66h254v-66h-91v-223l127 89v-69l-127 -90v-289h234v118h72v-184z" />
<glyph unicode="&#x142;" horiz-adv-x="280" d="M22 0v62h88v294l-89 -69v64l89 70v231h-86v62h152v-250l89 69v-65l-89 -69v-337h88v-62h-242z" />
<glyph unicode="&#x152;" horiz-adv-x="1120" d="M95 363q0 -62 23 -117.5t62.5 -97t94 -66t117.5 -24.5t116.5 24.5t93.5 66.5t62.5 97t22.5 117t-22.5 115.5t-62.5 94.5q-39 41 -92.5 64.5t-116.5 23.5t-117 -23t-95 -64q-40 -40 -63 -94t-23 -117zM1031 648h-266v-258h261v-59h-261v-265h266v118h71v-184h-409v185 q-20 -46 -51.5 -83t-70.5 -62.5t-85.5 -39.5t-96.5 -14q-47 0 -95 14t-91.5 39.5t-80 62.5t-60.5 83q-13 25 -26 72.5t-13 107.5q0 55 12 98.5t29 74.5q24 43 58 78.5t76 61.5t90.5 40.5t101.5 14.5q101 0 182 -50.5t121 -144.5v176h410v-182h-72v116z" />
<glyph unicode="&#x153;" horiz-adv-x="1060" d="M289 50q45 0 83.5 16.5t67.5 45.5t45.5 67.5t16.5 82.5q0 43 -17 81.5t-45.5 66.5t-67.5 44.5t-82 16.5q-45 0 -83.5 -17t-67.5 -46t-45.5 -67.5t-16.5 -82.5q0 -43 17 -81t46 -66t67.5 -44.5t81.5 -16.5zM983 294q-7 37 -25 69.5t-45 56.5t-61.5 37.5t-73.5 13.5 t-74.5 -13.5t-63 -37t-46 -56t-23.5 -70.5h412zM1032 150q-15 -38 -41.5 -68t-60 -51.5t-72.5 -33t-80 -11.5q-79 0 -144.5 39t-97.5 112q-16 -35 -41.5 -63t-58 -47.5t-69.5 -30t-76 -10.5q-57 0 -107.5 21.5t-88 59t-59 87.5t-21.5 106q0 57 22 107t59.5 87t88.5 58.5 t109 21.5q39 0 76 -11t69 -31t57 -49t40 -65q31 74 97 115t147 41q55 0 105 -21.5t87.5 -58.5t59.5 -86t22 -104v-24h-484q2 -40 19 -74.5t45 -60t64.5 -40t76.5 -14.5q57 0 104.5 25.5t77.5 73.5h75z" />
<glyph unicode="&#x160;" horiz-adv-x="500" d="M271 806h-39l-171 138h86l109 -82l107 82h83zM374 543q-7 61 -46.5 94t-95.5 33q-27 0 -52 -9t-43.5 -25.5t-30 -39.5t-11.5 -51q0 -29 12 -55.5t35 -43.5q24 -18 57 -26.5t62 -15.5q39 -9 75 -21t68 -39q33 -27 50 -65t17 -80q0 -37 -8.5 -68t-32.5 -61 q-66 -84 -178 -84q-50 0 -92 21t-70 63v-70h-60v192h60q7 -64 49.5 -102.5t109.5 -38.5q30 0 57.5 10.5t48 29t32.5 44.5t12 57q0 39 -14 64t-37 41.5t-53 26t-62 17.5q-37 10 -70.5 20t-65.5 33q-37 27 -55.5 65.5t-18.5 83.5q0 38 11 65.5t26 47.5q29 39 75.5 58t97.5 19 q42 0 82.5 -19t58.5 -58v58h60v-171h-60z" />
<glyph unicode="&#x161;" horiz-adv-x="420" d="M231 617h-39l-171 138h86l109 -82l107 82h83zM314 392q-1 20 -10 36.5t-24 27.5q-32 24 -74 24q-20 0 -38.5 -6t-33 -17t-23 -28t-8.5 -38q0 -25 10.5 -41t27.5 -26t37.5 -16t40.5 -10q31 -6 61.5 -14t57.5 -25q32 -18 48.5 -48.5t16.5 -66.5q0 -26 -7 -45t-16 -36 q-19 -36 -63 -56.5t-90 -20.5q-48 0 -85 18t-61 59v-63h-54v150h54q5 -48 42.5 -79.5t91.5 -31.5q22 0 42.5 7t36.5 20t25.5 31.5t9.5 41.5q0 27 -10.5 44t-27.5 27t-38.5 15.5t-43.5 10.5q-31 7 -61 14.5t-57 24.5q-29 19 -45.5 47.5t-16.5 63.5q0 27 6 48.5t21 41.5 q12 15 28 26t34.5 18t38.5 10.5t38 3.5q37 0 68 -13.5t51 -44.5v49h54v-133h-54z" />
<glyph unicode="&#x178;" horiz-adv-x="680" d="M311 816h-69v125h69v-125zM438 816h-69v125h69v-125zM381 66h91v-66h-255v66h92v174l-217 408h-85v66h249v-66h-88l177 -340l168 340h-92v66h250v-66h-85l-205 -408v-174z" />
<glyph unicode="&#x17d;" horiz-adv-x="520" d="M281 806h-39l-171 138h86l109 -82l107 82h83zM506 0h-483v59l371 589h-297v-119h-62v185h447v-57l-372 -591h334v119h62v-185z" />
<glyph unicode="&#x17e;" horiz-adv-x="420" d="M231 617h-39l-171 138h86l109 -82l107 82h83zM412 159v-159h-399v56l301 407h-226v-101h-59v163h368v-61l-295 -402h251v97h59z" />
<glyph unicode="&#x192;" d="M273 34q-8 -42 -22 -73.5t-51 -58.5q-31 -23 -65 -32.5t-72 -11.5l10 55q21 2 41 7t37 16q30 19 39.5 44t16.5 55l68 362h-87l9 50h88q5 22 9.5 49.5t10.5 55.5t14 54t21 44q30 42 77 61t100 22l-11 -56q-33 -2 -62.5 -15t-48.5 -39q-9 -14 -15.5 -37t-11 -48.5t-8.5 -50 t-8 -40.5h89l-9 -50h-90z" />
<glyph unicode="&#x2c6;" horiz-adv-x="520" d="M370 617l-109 82l-107 -82h-83l172 138h39l174 -138h-86z" />
<glyph unicode="&#x2c7;" horiz-adv-x="520" d="M281 617h-39l-171 138h86l109 -82l107 82h83z" />
<glyph unicode="&#x2c9;" horiz-adv-x="460" d="M391 663h-320v55h320v-55z" />
<glyph unicode="&#x2d8;" horiz-adv-x="480" d="M123 753q1 -21 12.5 -35.5t27.5 -24.5t35.5 -14.5t37.5 -4.5t37 4.5t35.5 14.5t27.5 24.5t13 35.5h48q-1 -33 -15 -57.5t-36.5 -41t-51 -25t-58.5 -8.5t-59 8.5t-51.5 25t-36.5 41t-14 57.5h48z" />
<glyph unicode="&#x2d9;" horiz-adv-x="200" d="M138 627h-67v125h67v-125z" />
<glyph unicode="&#x2da;" horiz-adv-x="360" d="M179 625q26 0 43.5 18.5t17.5 44.5t-18.5 43.5t-43.5 17.5q-27 0 -44.5 -18.5t-17.5 -44.5t18.5 -43.5t44.5 -17.5zM179 581q-23 0 -42.5 8.5t-33.5 22.5t-22.5 33.5t-8.5 42.5q0 22 8.5 41t23 33.5t34 22.5t41.5 8t41 -8.5t33 -23t22.5 -34t8.5 -40.5q0 -22 -8.5 -41 t-22.5 -33.5t-33 -23t-41 -8.5z" />
<glyph unicode="&#x2db;" horiz-adv-x="320" d="M241 -178q-28 -11 -55 -11q-45 0 -73 28t-28 73q0 27 10.5 48t29.5 40h47q-17 -13 -26.5 -27t-9.5 -37q0 -29 17.5 -52.5t47.5 -23.5q11 0 20.5 3t19.5 7v-48z" />
<glyph unicode="&#x2dc;" horiz-adv-x="460" d="M391 691q-20 -21 -45 -33.5t-54 -12.5q-20 0 -36 5.5t-30 12t-27.5 12t-27.5 5.5q-18 0 -33 -8.5t-27 -21.5l-39 49q15 17 39 28t47 11q18 0 33 -5.5t29 -11.5q15 -7 30 -12.5t33 -5.5q45 0 71 33z" />
<glyph unicode="&#x2dd;" horiz-adv-x="460" d="M199 617l135 187l48 -24l-143 -185zM71 622l135 188l48 -24l-143 -186z" />
<glyph unicode="&#x3a9;" horiz-adv-x="755" d="M213 57q-29 25 -55 58t-46 74.5t-32 90t-12 104.5q0 78 24.5 141.5t66.5 109.5t99 71t123 25q69 0 125.5 -27.5t96 -75t61.5 -109.5t22 -131q0 -58 -12.5 -108.5t-33.5 -92.5t-47.5 -75t-53.5 -55v-3h161v-54h-245v40q31 20 60.5 52t52.5 74.5t37 95.5t14 115 q0 51 -15 104.5t-45 96.5t-75 70.5t-104 27.5q-56 0 -101.5 -23.5t-77.5 -64.5t-49 -96t-17 -117q0 -59 14 -111t37 -95.5t52.5 -76.5t60.5 -52v-40h-245v54h159v3z" />
<glyph unicode="&#x3bc;" horiz-adv-x="640" d="M478 88h-2q-24 -48 -70 -75t-103 -27q-38 0 -75 15t-65 40v-236h-66v658h-88v62h154v-295q0 -34 8 -67t26.5 -58.5t49 -41t75.5 -15.5q3 0 16 1.5t30.5 7t37 17t35.5 32t26.5 51t10.5 73.5v233h-88v62h154v-463h89v-62h-155v88z" />
<glyph unicode="&#x3c0;" horiz-adv-x="588" d="M473 478v-326q0 -66 4.5 -99t10.5 -53h-64q-7 12 -12 45.5t-5 99.5v333h-200q-2 -52 -9 -119.5t-17.5 -135.5t-23.5 -127.5t-28 -95.5h-65q15 41 28 100.5t23.5 125.5t17.5 132t9 120q-52 0 -77.5 -4t-42.5 -10l-11 44q20 11 53 18.5t91 7.5h411l-7 -56h-86z" />
<glyph unicode="&#x2013;" horiz-adv-x="500" d="M-6 228v66h512v-66h-512z" />
<glyph unicode="&#x2014;" horiz-adv-x="1000" d="M-6 228v66h1012v-66h-1012z" />
<glyph unicode="&#x2018;" horiz-adv-x="200" d="M173 531h-63l-74 183h63z" />
<glyph unicode="&#x2019;" horiz-adv-x="200" d="M36 531l74 183h63l-74 -183h-63z" />
<glyph unicode="&#x201a;" horiz-adv-x="200" d="M36 -97l74 184h63l-74 -184h-63z" />
<glyph unicode="&#x201c;" horiz-adv-x="340" d="M302 531h-63l-75 183h64zM173 531h-63l-74 183h63z" />
<glyph unicode="&#x201d;" horiz-adv-x="340" d="M36 531l74 183h63l-74 -183h-63zM165 531l75 183h63l-75 -183h-63z" />
<glyph unicode="&#x201e;" horiz-adv-x="340" d="M36 -97l74 184h63l-74 -184h-63zM164 -97l75 184h63l-74 -184h-64z" />
<glyph unicode="&#x2020;" horiz-adv-x="560" d="M319 -132h-69v570h-214v55h214v221h69v-221h213v-55h-213v-570z" />
<glyph unicode="&#x2021;" horiz-adv-x="560" d="M315 321h212v-54h-212v-399h-70v399h-209v54h209v123h-209v54h209v216h70v-216h212v-54h-212v-123z" />
<glyph unicode="&#x2022;" horiz-adv-x="600" d="M459 179h-318v357h318v-357z" />
<glyph unicode="&#x2026;" horiz-adv-x="1000" d="M867 0h-69v109h69v-109zM534 0h-69v109h69v-109zM201 0h-69v109h69v-109z" />
<glyph unicode="&#x2030;" horiz-adv-x="1200" d="M217 0l317 714h57l-316 -714h-58zM995 46q22 0 42 8.5t34 23.5t22.5 34.5t8.5 41.5t-8.5 41t-23 33.5t-33.5 23t-41 8.5t-41.5 -8t-34.5 -22t-24 -33t-9 -41q0 -23 8.5 -43t23 -35t34 -23.5t42.5 -8.5zM994 -13q-35 0 -65 13.5t-52.5 36.5t-35 53.5t-12.5 65.5 q0 34 13.5 63.5t36 51.5t53 34.5t63.5 12.5q34 0 64 -13t52.5 -35.5t35.5 -52.5t13 -64t-13 -64.5t-35.5 -53t-53 -35.5t-64.5 -13zM202 456q22 0 42 8.5t34 23.5t22.5 34.5t8.5 42.5q0 22 -8.5 41t-23 33.5t-33.5 23t-41 8.5t-41.5 -8t-34.5 -22t-24 -33t-9 -41 q0 -23 8 -43t22.5 -35t34.5 -24t43 -9zM201 398q-35 0 -65.5 13.5t-52.5 36.5t-34.5 53.5t-12.5 65.5q0 34 13.5 63.5t36 51.5t53 34.5t63.5 12.5q34 0 63.5 -13t52 -35.5t35.5 -52.5t13 -64q0 -35 -13 -65t-35 -52.5t-52.5 -35.5t-64.5 -13zM605 46q22 0 42 8.5t34 23.5 t22.5 34.5t8.5 41.5t-8.5 41t-23 33.5t-33.5 23t-41 8.5t-41.5 -8t-34.5 -22t-23.5 -33t-8.5 -41q0 -23 8 -43t22.5 -35t34 -23.5t42.5 -8.5zM605 -13q-35 0 -65.5 13.5t-52.5 36.5t-34.5 53.5t-12.5 65.5q0 34 13.5 63.5t36 51.5t52.5 34.5t63 12.5q34 0 64 -13t52.5 -35.5 t35.5 -52.5t13 -64t-13 -64.5t-35 -53t-52.5 -35.5t-64.5 -13z" />
<glyph unicode="&#x2039;" horiz-adv-x="200" d="M36 241v40l115 171l15 -56l-85 -137l85 -136l-15 -54z" />
<glyph unicode="&#x203a;" horiz-adv-x="200" d="M36 123l85 136l-85 137l14 56l116 -171v-40l-116 -172z" />
<glyph unicode="&#x2044;" horiz-adv-x="60" d="M-154 0l317 714h57l-316 -714h-58z" />
<glyph unicode="&#x20ac;" d="M147 290q5 -42 15.5 -81t27.5 -71q23 -42 60 -67t89 -25q28 0 54 8t47 25.5t36 44t21 63.5h64q-14 -99 -72 -150t-152 -51q-70 0 -119.5 31.5t-80.5 82.5q-26 42 -40.5 91t-19.5 99h-77v45h74q-1 8 -1 14.5v13.5v16.5t1 16.5h-74v44h78q6 48 20.5 94.5t40.5 86.5 q32 50 81 81t116 31q56 0 96.5 -24.5t69.5 -78.5v84h51v-174h-67q-9 27 -22.5 51t-31.5 42t-42 29t-54 11q-48 0 -84 -24t-61 -68q-17 -29 -27.5 -64.5t-15.5 -76.5h263v-44h-267q-1 -8 -1 -16.5v-16.5v-14t1 -14h267v-45h-264z" />
<glyph unicode="&#x2113;" horiz-adv-x="498" d="M176 311q36 38 67 77t54 78.5t36 79t13 80.5q0 51 -17.5 83.5t-61.5 32.5q-15 0 -31 -9.5t-29.5 -31.5t-22 -58t-8.5 -88v-244zM473 118q-67 -127 -190 -127q-44 0 -75.5 16t-51.5 43t-30 62t-11 74v14q-14 -11 -30 -24.5t-31 -25.5l-22 39q22 19 42.5 36t39.5 36v287 q0 71 14 118t36 75t49.5 39.5t54.5 11.5q32 0 56 -13t39.5 -35t23 -52t7.5 -64q0 -50 -15.5 -98t-44 -95.5t-69 -95t-89.5 -94.5v-32q0 -46 10.5 -78t27 -52.5t38 -29.5t44.5 -9q25 0 47 9.5t40.5 24t32.5 32.5t24 36z" />
<glyph unicode="&#x2122;" horiz-adv-x="980" d="M330 657h-129v-350h-71v350h-130v57h330v-57zM846 307h-63v350l-141 -350h-38l-138 350v-350h-64v407h104l116 -287l122 287h102v-407z" />
<glyph unicode="&#x2126;" horiz-adv-x="755" d="M213 57q-29 25 -55 58t-46 74.5t-32 90t-12 104.5q0 78 24.5 141.5t66.5 109.5t99 71t123 25q69 0 125.5 -27.5t96 -75t61.5 -109.5t22 -131q0 -58 -12.5 -108.5t-33.5 -92.5t-47.5 -75t-53.5 -55v-3h161v-54h-245v40q31 20 60.5 52t52.5 74.5t37 95.5t14 115 q0 51 -15 104.5t-45 96.5t-75 70.5t-104 27.5q-56 0 -101.5 -23.5t-77.5 -64.5t-49 -96t-17 -117q0 -59 14 -111t37 -95.5t52.5 -76.5t60.5 -52v-40h-245v54h159v3z" />
<glyph unicode="&#x212e;" horiz-adv-x="901" d="M712 580q0 15 -10 24q-49 48 -113 77t-139 29q-74 0 -139 -29.5t-114 -79.5q-10 -12 -10 -25v-200q0 -7 6 -7h515q4 0 4 7v204zM193 349q-6 0 -6 -4v-204q0 -7 2.5 -12.5t6.5 -10.5q49 -51 114 -80.5t140 -29.5q81 0 150 33t118 90h59q-56 -66 -141.5 -105t-186.5 -39 q-86 0 -161 29t-131.5 79.5t-89 118.5t-32.5 145q0 78 32.5 146t89 118.5t131.5 80t161 29.5t162 -29.5t132.5 -80t89 -118.5t32.5 -146v-10h-672z" />
<glyph unicode="&#x2202;" horiz-adv-x="562" d="M248 45q39 0 71 22t56 59.5t39 86t21 102.5q-6 18 -20 39t-34.5 39t-47 30t-58.5 12q-33 0 -63 -16t-52.5 -44t-35.5 -65.5t-13 -80.5q0 -40 9.5 -73.5t27.5 -58t43 -38.5t56 -14h1zM81 747q26 21 67 39.5t103 18.5q49 0 95.5 -23.5t82.5 -72t58 -122t22 -172.5 q0 -89 -16.5 -166t-50 -135t-83.5 -91t-117 -33q-50 0 -87 20.5t-61.5 54t-36.5 76t-12 86.5q0 60 18 108.5t49 82t70.5 52t83.5 18.5q37 0 67 -12t52.5 -28.5t37 -34t20.5 -29.5h1q1 10 1 24v24q0 73 -16 131.5t-43.5 100t-64 64t-76.5 22.5q-49 0 -83 -16t-56 -34z" />
<glyph unicode="&#x2206;" horiz-adv-x="674" d="M569 54l-160 415q-7 21 -17 47t-20.5 52.5t-20 51.5t-14.5 43h-4q-4 -15 -11.5 -36.5t-17 -46l-19 -49t-16.5 -45.5l-169 -432h469zM33 48l268 692h75l264 -692v-48h-607v48z" />
<glyph unicode="&#x220f;" horiz-adv-x="724" d="M579 660v-759h-64v759h-307v-759h-65v759h-116v59h669v-59h-117z" />
<glyph unicode="&#x2211;" horiz-adv-x="576" d="M23 -99v44l287 363l-273 366v45h499v-57h-407v-3l257 -342l-276 -351v-3h442v-62h-529z" />
<glyph unicode="&#x2212;" horiz-adv-x="660" d="M78 327v61h503v-61h-503z" />
<glyph unicode="&#x2215;" horiz-adv-x="60" d="M-154 0l317 714h57l-316 -714h-58z" />
<glyph unicode="&#x2219;" horiz-adv-x="300" d="M185 304h-69v109h69v-109z" />
<glyph unicode="&#x221a;" horiz-adv-x="590" d="M358 -156h-61l-169 484l-78 -29l-14 41l134 52l139 -397q5 -18 9.5 -37.5t7.5 -34.5h1q2 14 6 33.5t8 36.5l197 860h51z" />
<glyph unicode="&#x221e;" horiz-adv-x="807" d="M598 415q-27 0 -51 -13t-45 -31.5t-39 -38.5t-32 -34q27 -29 48.5 -51t41 -37t39 -22.5t40.5 -7.5q25 0 45 10t33.5 26.5t20.5 37.5t7 42q0 57 -30.5 88t-76.5 31h-1zM214 180q26 0 49 11.5t43.5 28.5t38.5 37t35 37q-18 21 -36.5 42.5t-39.5 39t-45 28.5t-53 11 q-25 0 -45 -10t-33.5 -27t-20 -38.5t-6.5 -45.5t8 -44.5t22.5 -36t35 -24.5t46.5 -9h1zM753 299q0 -37 -13 -67t-35 -51t-50.5 -32.5t-58.5 -11.5q-50 0 -93.5 32t-98.5 93q-21 -23 -42 -45.5t-45 -40t-51 -28.5t-59 -11t-60 12t-49 33.5t-33 50.5t-12 62q0 35 12 64.5 t34 51t51 33.5t64 12q29 0 55.5 -10.5t50.5 -28t45.5 -40.5t42.5 -47q21 23 42 45.5t44.5 40.5t50 29t59.5 11q34 0 61.5 -11.5t47 -32t30 -49.5t10.5 -63v-1z" />
<glyph unicode="&#x222b;" horiz-adv-x="362" d="M334 816q-7 5 -17.5 8t-21.5 3q-13 0 -27.5 -5t-25.5 -19q-20 -23 -28.5 -67t-8.5 -119q0 -60 2 -126t5 -134t5 -135t2 -128q0 -43 -4 -76t-10 -58t-14.5 -43.5t-17.5 -31.5q-16 -24 -41.5 -36t-54.5 -12q-19 0 -37.5 6t-27.5 11l13 48q7 -3 19.5 -8t28.5 -5q13 0 26 6.5 t22 17.5q8 10 15 24.5t12 36t8 51t3 70.5q0 62 -2 129.5t-5 136t-5 135.5t-2 127q0 84 12 134.5t42 80.5q19 20 43 29.5t49 9.5q16 0 31.5 -5t23.5 -10z" />
<glyph unicode="&#x2248;" horiz-adv-x="590" d="M539 242q-20 -39 -51.5 -67.5t-80.5 -28.5q-32 0 -59 12t-65 32q-24 14 -48 25t-51 11q-38 0 -61.5 -24t-43.5 -55l-30 24q24 46 60.5 72t81.5 26q19 0 36 -4.5t31.5 -11.5t27 -14t23.5 -13q26 -14 48.5 -25.5t52.5 -11.5q33 0 55.5 19.5t45.5 58.5zM539 415 q-20 -39 -52 -67.5t-80 -28.5q-32 0 -59 12t-65 32q-24 14 -48.5 25t-50.5 11q-37 0 -61 -23.5t-44 -54.5l-30 24q24 45 60.5 71t81.5 26q19 0 36 -5t31.5 -11.5t27 -14t23.5 -13.5l50 -25t51 -11q32 0 55 19.5t46 58.5z" />
<glyph unicode="&#x2260;" horiz-adv-x="590" d="M367 414h168v-44h-187l-72 -155h259v-44h-278l-57 -124l-36 17l50 107h-160v44h179l72 155h-251v44h269l57 122l35 -17z" />
<glyph unicode="&#x2264;" horiz-adv-x="590" d="M54 8v46h481v-46h-481zM60 332v46l473 234v-54l-424 -201v-2l424 -204v-54z" />
<glyph unicode="&#x2265;" horiz-adv-x="590" d="M55 8v46h480v-46h-480zM533 378v-46l-472 -235v54l422 203v2l-422 202v54z" />
<glyph unicode="&#x25ca;" horiz-adv-x="591" d="M315 658q-5 12 -10.5 26.5t-9.5 24.5h-2q-4 -11 -8.5 -24t-11.5 -27l-155 -297l157 -302q8 -15 12.5 -28t6.5 -23h3q3 10 8.5 25t10.5 26l155 299zM321 -47h-54l-209 406l211 407h54l209 -407z" />
<glyph unicode="&#x25fc;" horiz-adv-x="525" d="M0 525h525v-525h-525v525z" />
</font>
</defs>
</svg>
